<svg width="710" height="683" viewBox="0 0 710 683" fill="none" xmlns="http://www.w3.org/2000/svg">
<g clip-path="url(#clip0_424_16745)">
<g clip-path="url(#clip1_424_16745)">
<rect width="709.328" height="682.656" fill="url(#paint0_radial_424_16745)"/>
</g>
</g>
<rect x="103" y="110" width="504" height="180" rx="8" fill="#F5F5F5"/>
<path d="M133.976 217.928H129.624V223H128.28V211.832H129.624V216.76H133.976V211.832H135.32V223H133.976V217.928ZM141.394 223.192C140.818 223.192 140.295 223.091 139.826 222.888C139.367 222.685 138.972 222.397 138.642 222.024C138.322 221.64 138.076 221.187 137.906 220.664C137.735 220.131 137.65 219.533 137.65 218.872C137.65 218.221 137.735 217.629 137.906 217.096C138.076 216.563 138.322 216.109 138.642 215.736C138.972 215.352 139.367 215.059 139.826 214.856C140.295 214.653 140.818 214.552 141.394 214.552C141.97 214.552 142.487 214.653 142.946 214.856C143.415 215.059 143.81 215.352 144.13 215.736C144.46 216.109 144.711 216.563 144.882 217.096C145.052 217.629 145.138 218.221 145.138 218.872C145.138 219.533 145.052 220.131 144.882 220.664C144.711 221.187 144.46 221.64 144.13 222.024C143.81 222.397 143.415 222.685 142.946 222.888C142.487 223.091 141.97 223.192 141.394 223.192ZM141.394 222.088C142.108 222.088 142.684 221.875 143.122 221.448C143.559 221.021 143.778 220.36 143.778 219.464V218.28C143.778 217.384 143.559 216.723 143.122 216.296C142.684 215.869 142.108 215.656 141.394 215.656C140.679 215.656 140.103 215.869 139.666 216.296C139.228 216.723 139.01 217.384 139.01 218.28V219.464C139.01 220.36 139.228 221.021 139.666 221.448C140.103 221.875 140.679 222.088 141.394 222.088ZM146.668 214.744H147.804L148.748 221.88H148.892L150.299 214.744H151.708L153.116 221.88H153.26L154.204 214.744H155.308L154.044 223H152.38L151.068 216.088H150.94L149.596 223H147.932L146.668 214.744ZM166.655 221.912H169.535V212.248H166.655V211.16H170.815V221.912H173.695V223H166.655V221.912ZM179.769 223.192C179.193 223.192 178.67 223.091 178.201 222.888C177.742 222.685 177.347 222.397 177.017 222.024C176.697 221.64 176.451 221.187 176.281 220.664C176.11 220.131 176.025 219.533 176.025 218.872C176.025 218.221 176.11 217.629 176.281 217.096C176.451 216.563 176.697 216.109 177.017 215.736C177.347 215.352 177.742 215.059 178.201 214.856C178.67 214.653 179.193 214.552 179.769 214.552C180.345 214.552 180.862 214.653 181.321 214.856C181.79 215.059 182.185 215.352 182.505 215.736C182.835 216.109 183.086 216.563 183.257 217.096C183.427 217.629 183.513 218.221 183.513 218.872C183.513 219.533 183.427 220.131 183.257 220.664C183.086 221.187 182.835 221.64 182.505 222.024C182.185 222.397 181.79 222.685 181.321 222.888C180.862 223.091 180.345 223.192 179.769 223.192ZM179.769 222.088C180.483 222.088 181.059 221.875 181.497 221.448C181.934 221.021 182.153 220.36 182.153 219.464V218.28C182.153 217.384 181.934 216.723 181.497 216.296C181.059 215.869 180.483 215.656 179.769 215.656C179.054 215.656 178.478 215.869 178.041 216.296C177.603 216.723 177.385 217.384 177.385 218.28V219.464C177.385 220.36 177.603 221.021 178.041 221.448C178.478 221.875 179.054 222.088 179.769 222.088ZM186.131 223V214.744H187.411V216.088H187.475C187.56 215.885 187.667 215.693 187.795 215.512C187.923 215.32 188.077 215.155 188.259 215.016C188.451 214.877 188.675 214.765 188.931 214.68C189.187 214.595 189.485 214.552 189.827 214.552C190.691 214.552 191.384 214.829 191.907 215.384C192.429 215.928 192.691 216.701 192.691 217.704V223H191.411V217.928C191.411 217.171 191.245 216.611 190.915 216.248C190.584 215.875 190.099 215.688 189.459 215.688C189.203 215.688 188.952 215.72 188.707 215.784C188.461 215.848 188.243 215.944 188.051 216.072C187.859 216.2 187.704 216.365 187.587 216.568C187.469 216.771 187.411 217.005 187.411 217.272V223H186.131ZM203.132 223.944C203.132 224.776 202.786 225.389 202.092 225.784C201.399 226.189 200.359 226.392 198.972 226.392C197.639 226.392 196.679 226.216 196.092 225.864C195.516 225.512 195.228 225.005 195.228 224.344C195.228 223.896 195.346 223.549 195.58 223.304C195.815 223.059 196.146 222.877 196.572 222.76V222.568C196.338 222.451 196.156 222.301 196.028 222.12C195.9 221.939 195.836 221.709 195.836 221.432C195.836 221.005 195.975 220.685 196.252 220.472C196.54 220.259 196.898 220.099 197.324 219.992V219.928C196.812 219.704 196.412 219.373 196.124 218.936C195.847 218.499 195.708 217.987 195.708 217.4C195.708 216.984 195.783 216.6 195.932 216.248C196.082 215.896 196.295 215.597 196.572 215.352C196.86 215.096 197.202 214.899 197.596 214.76C197.991 214.621 198.428 214.552 198.908 214.552C199.527 214.552 200.071 214.664 200.54 214.888V214.744C200.54 214.424 200.615 214.157 200.764 213.944C200.914 213.731 201.17 213.624 201.532 213.624H203.052V214.744H201.196V215.304C201.495 215.56 201.724 215.864 201.884 216.216C202.044 216.568 202.124 216.963 202.124 217.4C202.124 217.816 202.044 218.2 201.884 218.552C201.735 218.904 201.522 219.208 201.244 219.464C200.967 219.709 200.626 219.901 200.22 220.04C199.826 220.179 199.388 220.248 198.908 220.248C198.77 220.248 198.636 220.243 198.508 220.232C198.38 220.221 198.252 220.205 198.124 220.184C197.996 220.205 197.863 220.243 197.724 220.296C197.586 220.339 197.458 220.403 197.34 220.488C197.223 220.563 197.127 220.653 197.052 220.76C196.978 220.867 196.94 220.989 196.94 221.128C196.94 221.373 197.063 221.539 197.308 221.624C197.554 221.699 197.874 221.736 198.268 221.736H200.092C201.159 221.736 201.932 221.939 202.412 222.344C202.892 222.739 203.132 223.272 203.132 223.944ZM201.932 224.008C201.932 223.677 201.799 223.411 201.532 223.208C201.266 223.016 200.802 222.92 200.14 222.92H197.276C196.722 223.144 196.444 223.517 196.444 224.04C196.444 224.403 196.588 224.712 196.876 224.968C197.164 225.235 197.644 225.368 198.316 225.368H199.564C200.311 225.368 200.892 225.251 201.308 225.016C201.724 224.792 201.932 224.456 201.932 224.008ZM198.908 219.256C199.548 219.256 200.018 219.107 200.316 218.808C200.626 218.509 200.78 218.115 200.78 217.624V217.16C200.78 216.669 200.626 216.28 200.316 215.992C200.018 215.693 199.548 215.544 198.908 215.544C198.268 215.544 197.799 215.693 197.5 215.992C197.202 216.28 197.052 216.669 197.052 217.16V217.624C197.052 218.115 197.202 218.509 197.5 218.808C197.799 219.107 198.268 219.256 198.908 219.256ZM218.432 223.192C217.834 223.192 217.301 223.091 216.832 222.888C216.373 222.675 215.984 222.381 215.664 222.008C215.344 221.635 215.098 221.181 214.928 220.648C214.768 220.115 214.688 219.523 214.688 218.872C214.688 218.221 214.773 217.629 214.944 217.096C215.114 216.563 215.36 216.109 215.68 215.736C216 215.352 216.389 215.059 216.848 214.856C217.306 214.653 217.829 214.552 218.416 214.552C219.216 214.552 219.866 214.728 220.368 215.08C220.869 215.432 221.237 215.891 221.472 216.456L220.448 217C220.298 216.573 220.048 216.243 219.696 216.008C219.354 215.773 218.928 215.656 218.416 215.656C218.042 215.656 217.706 215.72 217.408 215.848C217.12 215.965 216.874 216.136 216.672 216.36C216.469 216.584 216.314 216.851 216.208 217.16C216.112 217.469 216.064 217.805 216.064 218.168V219.576C216.064 219.939 216.112 220.275 216.208 220.584C216.314 220.893 216.469 221.16 216.672 221.384C216.874 221.608 217.125 221.784 217.424 221.912C217.722 222.029 218.064 222.088 218.448 222.088C219.002 222.088 219.461 221.96 219.824 221.704C220.186 221.448 220.474 221.096 220.688 220.648L221.6 221.272C221.354 221.827 220.97 222.285 220.448 222.648C219.936 223.011 219.264 223.192 218.432 223.192ZM230.858 223C230.356 223 229.999 222.872 229.786 222.616C229.572 222.36 229.439 222.04 229.386 221.656H229.306C229.124 222.136 228.831 222.515 228.426 222.792C228.031 223.059 227.498 223.192 226.826 223.192C225.962 223.192 225.274 222.968 224.762 222.52C224.25 222.072 223.993 221.459 223.993 220.68C223.993 219.912 224.271 219.32 224.826 218.904C225.391 218.488 226.298 218.28 227.546 218.28H229.306V217.464C229.306 216.856 229.135 216.403 228.794 216.104C228.452 215.795 227.967 215.64 227.338 215.64C226.783 215.64 226.33 215.752 225.978 215.976C225.626 216.189 225.343 216.483 225.13 216.856L224.266 216.216C224.372 216.003 224.516 215.795 224.698 215.592C224.879 215.389 225.103 215.213 225.37 215.064C225.636 214.904 225.94 214.781 226.282 214.696C226.623 214.6 227.002 214.552 227.418 214.552C228.388 214.552 229.156 214.797 229.722 215.288C230.298 215.779 230.586 216.461 230.586 217.336V221.88H231.738V223H230.858ZM227.049 222.12C227.38 222.12 227.679 222.083 227.946 222.008C228.223 221.923 228.463 221.816 228.666 221.688C228.868 221.549 229.023 221.389 229.13 221.208C229.247 221.016 229.306 220.813 229.306 220.6V219.24H227.546C226.778 219.24 226.218 219.347 225.866 219.56C225.514 219.773 225.338 220.083 225.338 220.488V220.824C225.338 221.251 225.487 221.576 225.786 221.8C226.095 222.013 226.516 222.12 227.049 222.12ZM234.099 223V214.744H235.379V216.088H235.443C235.529 215.885 235.635 215.693 235.763 215.512C235.891 215.32 236.046 215.155 236.227 215.016C236.419 214.877 236.643 214.765 236.899 214.68C237.155 214.595 237.454 214.552 237.795 214.552C238.659 214.552 239.353 214.829 239.875 215.384C240.398 215.928 240.659 216.701 240.659 217.704V223H239.379V217.928C239.379 217.171 239.214 216.611 238.883 216.248C238.553 215.875 238.067 215.688 237.427 215.688C237.171 215.688 236.921 215.72 236.675 215.784C236.43 215.848 236.211 215.944 236.019 216.072C235.827 216.2 235.673 216.365 235.555 216.568C235.438 216.771 235.379 217.005 235.379 217.272V223H234.099ZM259.191 214.744H260.471L256.375 224.808C256.279 225.043 256.172 225.245 256.055 225.416C255.937 225.597 255.799 225.741 255.639 225.848C255.479 225.965 255.287 226.051 255.063 226.104C254.839 226.168 254.572 226.2 254.263 226.2H253.047V225.112H254.967L255.895 222.84L252.567 214.744H253.879L255.271 218.2L256.503 221.336H256.567L257.799 218.2L259.191 214.744ZM266.113 223.192C265.537 223.192 265.014 223.091 264.545 222.888C264.086 222.685 263.691 222.397 263.361 222.024C263.041 221.64 262.795 221.187 262.625 220.664C262.454 220.131 262.368 219.533 262.368 218.872C262.368 218.221 262.454 217.629 262.625 217.096C262.795 216.563 263.041 216.109 263.361 215.736C263.691 215.352 264.086 215.059 264.545 214.856C265.014 214.653 265.537 214.552 266.113 214.552C266.689 214.552 267.206 214.653 267.665 214.856C268.134 215.059 268.529 215.352 268.849 215.736C269.179 216.109 269.43 216.563 269.601 217.096C269.771 217.629 269.857 218.221 269.857 218.872C269.857 219.533 269.771 220.131 269.601 220.664C269.43 221.187 269.179 221.64 268.849 222.024C268.529 222.397 268.134 222.685 267.665 222.888C267.206 223.091 266.689 223.192 266.113 223.192ZM266.113 222.088C266.827 222.088 267.403 221.875 267.841 221.448C268.278 221.021 268.497 220.36 268.497 219.464V218.28C268.497 217.384 268.278 216.723 267.841 216.296C267.403 215.869 266.827 215.656 266.113 215.656C265.398 215.656 264.822 215.869 264.385 216.296C263.947 216.723 263.729 217.384 263.729 218.28V219.464C263.729 220.36 263.947 221.021 264.385 221.448C264.822 221.875 265.398 222.088 266.113 222.088ZM277.658 221.656H277.594C277.509 221.859 277.402 222.056 277.274 222.248C277.146 222.429 276.986 222.589 276.794 222.728C276.613 222.867 276.394 222.979 276.138 223.064C275.882 223.149 275.584 223.192 275.242 223.192C274.378 223.192 273.685 222.92 273.162 222.376C272.64 221.821 272.378 221.043 272.378 220.04V214.744H273.658V219.816C273.658 220.573 273.824 221.139 274.154 221.512C274.485 221.875 274.97 222.056 275.61 222.056C275.866 222.056 276.117 222.024 276.362 221.96C276.608 221.896 276.826 221.8 277.018 221.672C277.21 221.544 277.365 221.384 277.482 221.192C277.6 220.989 277.658 220.749 277.658 220.472V214.744H278.938V223H277.658V221.656ZM295.182 223.192C294.584 223.192 294.051 223.091 293.582 222.888C293.123 222.675 292.734 222.381 292.414 222.008C292.094 221.635 291.848 221.181 291.678 220.648C291.518 220.115 291.438 219.523 291.438 218.872C291.438 218.221 291.523 217.629 291.694 217.096C291.864 216.563 292.11 216.109 292.43 215.736C292.75 215.352 293.139 215.059 293.598 214.856C294.056 214.653 294.579 214.552 295.166 214.552C295.966 214.552 296.616 214.728 297.118 215.08C297.619 215.432 297.987 215.891 298.222 216.456L297.198 217C297.048 216.573 296.798 216.243 296.446 216.008C296.104 215.773 295.678 215.656 295.166 215.656C294.792 215.656 294.456 215.72 294.158 215.848C293.87 215.965 293.624 216.136 293.422 216.36C293.219 216.584 293.064 216.851 292.958 217.16C292.862 217.469 292.814 217.805 292.814 218.168V219.576C292.814 219.939 292.862 220.275 292.958 220.584C293.064 220.893 293.219 221.16 293.422 221.384C293.624 221.608 293.875 221.784 294.174 221.912C294.472 222.029 294.814 222.088 295.198 222.088C295.752 222.088 296.211 221.96 296.574 221.704C296.936 221.448 297.224 221.096 297.438 220.648L298.35 221.272C298.104 221.827 297.72 222.285 297.198 222.648C296.686 223.011 296.014 223.192 295.182 223.192ZM304.488 223.192C303.912 223.192 303.389 223.091 302.92 222.888C302.461 222.685 302.066 222.397 301.736 222.024C301.416 221.64 301.17 221.187 301 220.664C300.829 220.131 300.743 219.533 300.743 218.872C300.743 218.221 300.829 217.629 301 217.096C301.17 216.563 301.416 216.109 301.736 215.736C302.066 215.352 302.461 215.059 302.92 214.856C303.389 214.653 303.912 214.552 304.488 214.552C305.064 214.552 305.581 214.653 306.04 214.856C306.509 215.059 306.904 215.352 307.224 215.736C307.554 216.109 307.805 216.563 307.976 217.096C308.146 217.629 308.232 218.221 308.232 218.872C308.232 219.533 308.146 220.131 307.976 220.664C307.805 221.187 307.554 221.64 307.224 222.024C306.904 222.397 306.509 222.685 306.04 222.888C305.581 223.091 305.064 223.192 304.488 223.192ZM304.488 222.088C305.202 222.088 305.778 221.875 306.216 221.448C306.653 221.021 306.872 220.36 306.872 219.464V218.28C306.872 217.384 306.653 216.723 306.216 216.296C305.778 215.869 305.202 215.656 304.488 215.656C303.773 215.656 303.197 215.869 302.76 216.296C302.322 216.723 302.104 217.384 302.104 218.28V219.464C302.104 220.36 302.322 221.021 302.76 221.448C303.197 221.875 303.773 222.088 304.488 222.088ZM310.145 223V214.744H311.329V215.704H311.393C311.521 215.384 311.703 215.112 311.937 214.888C312.172 214.664 312.519 214.552 312.977 214.552C313.457 214.552 313.815 214.675 314.049 214.92C314.284 215.155 314.428 215.464 314.481 215.848H314.529C314.679 215.475 314.892 215.165 315.169 214.92C315.447 214.675 315.831 214.552 316.321 214.552C316.993 214.552 317.441 214.787 317.665 215.256C317.9 215.725 318.017 216.397 318.017 217.272V223H316.833V217.48C316.833 216.776 316.759 216.291 316.609 216.024C316.471 215.747 316.209 215.608 315.825 215.608C315.484 215.608 315.207 215.72 314.993 215.944C314.78 216.157 314.673 216.488 314.673 216.936V223H313.489V217.48C313.489 216.776 313.415 216.291 313.265 216.024C313.127 215.747 312.871 215.608 312.497 215.608C312.156 215.608 311.873 215.72 311.649 215.944C311.436 216.157 311.329 216.488 311.329 216.936V223H310.145ZM319.739 223V214.744H320.923V215.704H320.987C321.115 215.384 321.296 215.112 321.531 214.888C321.766 214.664 322.112 214.552 322.571 214.552C323.051 214.552 323.408 214.675 323.643 214.92C323.878 215.155 324.022 215.464 324.075 215.848H324.123C324.272 215.475 324.486 215.165 324.763 214.92C325.04 214.675 325.424 214.552 325.915 214.552C326.587 214.552 327.035 214.787 327.259 215.256C327.494 215.725 327.611 216.397 327.611 217.272V223H326.427V217.48C326.427 216.776 326.352 216.291 326.203 216.024C326.064 215.747 325.803 215.608 325.419 215.608C325.078 215.608 324.8 215.72 324.587 215.944C324.374 216.157 324.267 216.488 324.267 216.936V223H323.083V217.48C323.083 216.776 323.008 216.291 322.859 216.024C322.72 215.747 322.464 215.608 322.091 215.608C321.75 215.608 321.467 215.72 321.243 215.944C321.03 216.157 320.923 216.488 320.923 216.936V223H319.739ZM333.781 212.92C333.407 212.92 333.146 212.845 332.997 212.696C332.847 212.536 332.773 212.339 332.773 212.104V211.848C332.773 211.613 332.847 211.421 332.997 211.272C333.146 211.112 333.407 211.032 333.781 211.032C334.154 211.032 334.415 211.112 334.565 211.272C334.714 211.421 334.789 211.613 334.789 211.848V212.104C334.789 212.339 334.714 212.536 334.565 212.696C334.415 212.845 334.154 212.92 333.781 212.92ZM330.165 221.912H333.141V215.832H330.165V214.744H334.421V221.912H337.205V223H330.165V221.912ZM343.263 223C342.633 223 342.169 222.824 341.871 222.472C341.583 222.12 341.439 221.667 341.439 221.112V215.832H338.687V214.744H340.735C341.012 214.744 341.204 214.691 341.311 214.584C341.428 214.467 341.487 214.269 341.487 213.992V211.832H342.719V214.744H346.479V215.832H342.719V221.912H346.479V223H343.263ZM351.48 219.56V217.048C352.398 217.005 353.118 216.808 353.64 216.456C354.163 216.093 354.424 215.549 354.424 214.824V214.6C354.424 214.003 354.243 213.555 353.88 213.256C353.528 212.957 353.043 212.808 352.424 212.808C351.784 212.808 351.272 212.984 350.888 213.336C350.504 213.688 350.238 214.136 350.088 214.68L348.888 214.232C348.995 213.88 349.144 213.549 349.336 213.24C349.528 212.92 349.768 212.643 350.056 212.408C350.355 212.173 350.702 211.987 351.096 211.848C351.502 211.709 351.96 211.64 352.472 211.64C352.984 211.64 353.443 211.715 353.848 211.864C354.264 212.003 354.616 212.205 354.904 212.472C355.192 212.728 355.416 213.043 355.576 213.416C355.736 213.789 355.816 214.205 355.816 214.664C355.816 215.165 355.726 215.608 355.544 215.992C355.363 216.365 355.128 216.685 354.84 216.952C354.552 217.219 354.222 217.437 353.848 217.608C353.486 217.768 353.118 217.88 352.744 217.944V219.56H351.48ZM352.168 223.144C351.731 223.144 351.422 223.053 351.24 222.872C351.07 222.691 350.984 222.461 350.984 222.184V221.896C350.984 221.619 351.07 221.389 351.24 221.208C351.422 221.027 351.731 220.936 352.168 220.936C352.606 220.936 352.91 221.027 353.08 221.208C353.262 221.389 353.352 221.619 353.352 221.896V222.184C353.352 222.461 353.262 222.691 353.08 222.872C352.91 223.053 352.606 223.144 352.168 223.144Z" fill="#333232"/>
<rect x="127" y="268" width="456" height="8" rx="4" fill="#FE5424"/>
<g filter="url(#filter0_dd_424_16745)">
<rect x="304" y="238" width="52" height="20" rx="4" fill="#3C4257"/>
<path d="M309.114 250.381V249.124L312.817 243.273H313.865V245.062H313.226L310.733 249.013V249.081H315.902V250.381H309.114ZM313.277 252V249.997L313.294 249.435V243.273H314.786V252H313.277ZM321.216 254.455C321.006 254.455 320.811 254.438 320.632 254.403C320.456 254.372 320.316 254.335 320.211 254.293L320.569 253.091C320.793 253.156 320.993 253.188 321.169 253.185C321.346 253.182 321.5 253.126 321.634 253.018C321.77 252.913 321.885 252.737 321.979 252.49L322.111 252.136L319.738 245.455H321.374L322.882 250.398H322.951L324.463 245.455H326.104L323.483 252.793C323.361 253.139 323.199 253.436 322.998 253.683C322.796 253.933 322.549 254.124 322.256 254.254C321.966 254.388 321.62 254.455 321.216 254.455ZM329.847 252.128C329.19 252.128 328.624 251.991 328.146 251.719C327.672 251.443 327.307 251.054 327.051 250.551C326.795 250.045 326.668 249.45 326.668 248.766C326.668 248.092 326.795 247.501 327.051 246.993C327.31 246.482 327.67 246.084 328.134 245.8C328.597 245.513 329.141 245.369 329.766 245.369C330.169 245.369 330.55 245.435 330.908 245.565C331.268 245.693 331.587 245.892 331.862 246.162C332.141 246.432 332.359 246.776 332.518 247.193C332.678 247.608 332.757 248.102 332.757 248.676V249.149H327.392V248.109H331.278C331.276 247.814 331.212 247.551 331.087 247.321C330.962 247.088 330.787 246.905 330.562 246.771C330.341 246.638 330.082 246.571 329.787 246.571C329.472 246.571 329.195 246.648 328.956 246.801C328.717 246.952 328.531 247.151 328.398 247.398C328.267 247.642 328.2 247.911 328.197 248.203V249.111C328.197 249.491 328.267 249.818 328.406 250.091C328.545 250.361 328.74 250.568 328.99 250.713C329.24 250.855 329.533 250.926 329.868 250.926C330.092 250.926 330.295 250.895 330.477 250.832C330.659 250.767 330.817 250.672 330.95 250.547C331.084 250.422 331.185 250.267 331.253 250.082L332.693 250.244C332.602 250.625 332.429 250.957 332.173 251.241C331.92 251.523 331.597 251.741 331.202 251.898C330.807 252.051 330.355 252.128 329.847 252.128ZM335.946 252.132C335.531 252.132 335.157 252.058 334.825 251.911C334.495 251.76 334.234 251.538 334.041 251.246C333.85 250.953 333.755 250.592 333.755 250.163C333.755 249.794 333.824 249.489 333.96 249.247C334.096 249.006 334.282 248.812 334.518 248.668C334.754 248.523 335.02 248.413 335.315 248.339C335.613 248.263 335.922 248.207 336.24 248.173C336.623 248.134 336.934 248.098 337.173 248.067C337.412 248.033 337.585 247.982 337.693 247.913C337.804 247.842 337.859 247.733 337.859 247.585V247.56C337.859 247.239 337.764 246.99 337.574 246.814C337.383 246.638 337.109 246.55 336.751 246.55C336.373 246.55 336.074 246.632 335.852 246.797C335.633 246.962 335.485 247.156 335.409 247.381L333.968 247.176C334.082 246.778 334.27 246.446 334.531 246.179C334.792 245.909 335.112 245.707 335.49 245.574C335.868 245.438 336.285 245.369 336.743 245.369C337.058 245.369 337.372 245.406 337.684 245.48C337.997 245.554 338.282 245.676 338.541 245.847C338.799 246.014 339.007 246.243 339.163 246.533C339.322 246.822 339.402 247.185 339.402 247.619V252H337.919V251.101H337.868C337.774 251.283 337.642 251.453 337.471 251.612C337.304 251.768 337.092 251.895 336.836 251.991C336.583 252.085 336.287 252.132 335.946 252.132ZM336.346 250.999C336.656 250.999 336.924 250.937 337.152 250.815C337.379 250.69 337.554 250.526 337.676 250.321C337.801 250.116 337.863 249.893 337.863 249.652V248.881C337.815 248.92 337.733 248.957 337.616 248.991C337.502 249.026 337.375 249.055 337.233 249.081C337.091 249.107 336.95 249.129 336.811 249.149C336.672 249.169 336.551 249.186 336.449 249.2C336.218 249.232 336.012 249.283 335.831 249.354C335.649 249.425 335.505 249.524 335.4 249.652C335.295 249.777 335.243 249.939 335.243 250.138C335.243 250.422 335.346 250.636 335.554 250.781C335.761 250.926 336.025 250.999 336.346 250.999ZM340.953 252V245.455H342.449V246.545H342.517C342.636 246.168 342.841 245.876 343.13 245.672C343.423 245.464 343.757 245.361 344.132 245.361C344.217 245.361 344.312 245.365 344.417 245.374C344.525 245.379 344.615 245.389 344.686 245.403V246.822C344.62 246.8 344.517 246.78 344.375 246.763C344.235 246.743 344.1 246.733 343.97 246.733C343.689 246.733 343.436 246.794 343.211 246.916C342.99 247.036 342.815 247.202 342.687 247.415C342.559 247.628 342.495 247.874 342.495 248.152V252H340.953ZM350.884 247.185L349.478 247.338C349.438 247.196 349.368 247.062 349.269 246.938C349.172 246.812 349.042 246.712 348.877 246.635C348.712 246.558 348.51 246.52 348.272 246.52C347.951 246.52 347.681 246.589 347.462 246.729C347.246 246.868 347.14 247.048 347.142 247.27C347.14 247.46 347.209 247.615 347.351 247.734C347.496 247.854 347.735 247.952 348.067 248.028L349.184 248.267C349.803 248.401 350.263 248.612 350.564 248.902C350.868 249.192 351.022 249.571 351.025 250.04C351.022 250.452 350.901 250.815 350.662 251.131C350.426 251.443 350.098 251.687 349.678 251.864C349.257 252.04 348.775 252.128 348.229 252.128C347.428 252.128 346.783 251.96 346.294 251.625C345.806 251.287 345.515 250.817 345.421 250.214L346.925 250.07C346.993 250.365 347.138 250.588 347.36 250.739C347.581 250.889 347.87 250.964 348.225 250.964C348.591 250.964 348.885 250.889 349.107 250.739C349.331 250.588 349.444 250.402 349.444 250.18C349.444 249.993 349.371 249.838 349.226 249.716C349.084 249.594 348.863 249.5 348.561 249.435L347.445 249.2C346.817 249.07 346.353 248.849 346.051 248.54C345.75 248.227 345.601 247.832 345.604 247.355C345.601 246.952 345.711 246.602 345.932 246.307C346.157 246.009 346.468 245.778 346.865 245.616C347.266 245.452 347.728 245.369 348.25 245.369C349.017 245.369 349.621 245.533 350.061 245.859C350.505 246.186 350.779 246.628 350.884 247.185Z" fill="#E3E8EE"/>
</g>
<g filter="url(#filter1_dd_424_16745)">
<circle cx="330" cy="272" r="10" fill="white"/>
<circle cx="330" cy="272" r="9.5" stroke="#C1C9D2"/>
</g>
<rect x="259" y="157" width="210" height="40" rx="14" fill="#0D3251"/>
<path d="M271.16 184V171.436H272.672V182.686H278.63V184H271.16ZM288.703 184C288.139 184 287.737 183.856 287.497 183.568C287.257 183.28 287.107 182.92 287.047 182.488H286.957C286.753 183.028 286.423 183.454 285.967 183.766C285.523 184.066 284.923 184.216 284.167 184.216C283.195 184.216 282.421 183.964 281.845 183.46C281.269 182.956 280.981 182.266 280.981 181.39C280.981 180.526 281.293 179.86 281.917 179.392C282.553 178.924 283.573 178.69 284.977 178.69H286.957V177.772C286.957 177.088 286.765 176.578 286.381 176.242C285.997 175.894 285.451 175.72 284.743 175.72C284.119 175.72 283.609 175.846 283.213 176.098C282.817 176.338 282.499 176.668 282.259 177.088L281.287 176.368C281.407 176.128 281.569 175.894 281.773 175.666C281.977 175.438 282.229 175.24 282.529 175.072C282.829 174.892 283.171 174.754 283.555 174.658C283.939 174.55 284.365 174.496 284.833 174.496C285.925 174.496 286.789 174.772 287.425 175.324C288.073 175.876 288.397 176.644 288.397 177.628V182.74H289.693V184H288.703ZM284.419 183.01C284.791 183.01 285.127 182.968 285.427 182.884C285.739 182.788 286.009 182.668 286.237 182.524C286.465 182.368 286.639 182.188 286.759 181.984C286.891 181.768 286.957 181.54 286.957 181.3V179.77H284.977C284.113 179.77 283.483 179.89 283.087 180.13C282.691 180.37 282.493 180.718 282.493 181.174V181.552C282.493 182.032 282.661 182.398 282.997 182.65C283.345 182.89 283.819 183.01 284.419 183.01ZM292.35 184V174.712H293.79V176.224H293.862C293.958 175.996 294.078 175.78 294.222 175.576C294.366 175.36 294.54 175.174 294.744 175.018C294.96 174.862 295.212 174.736 295.5 174.64C295.788 174.544 296.124 174.496 296.508 174.496C297.48 174.496 298.26 174.808 298.848 175.432C299.436 176.044 299.73 176.914 299.73 178.042V184H298.29V178.294C298.29 177.442 298.104 176.812 297.732 176.404C297.36 175.984 296.814 175.774 296.094 175.774C295.806 175.774 295.524 175.81 295.248 175.882C294.972 175.954 294.726 176.062 294.51 176.206C294.294 176.35 294.12 176.536 293.988 176.764C293.856 176.992 293.79 177.256 293.79 177.556V184H292.35ZM309.029 182.488H308.957C308.357 183.64 307.403 184.216 306.095 184.216C304.955 184.216 304.061 183.79 303.413 182.938C302.777 182.086 302.459 180.892 302.459 179.356C302.459 177.82 302.777 176.626 303.413 175.774C304.061 174.922 304.955 174.496 306.095 174.496C307.403 174.496 308.357 175.072 308.957 176.224H309.029V170.68H310.469V184H309.029V182.488ZM306.653 182.938C306.977 182.938 307.283 182.896 307.571 182.812C307.859 182.728 308.111 182.608 308.327 182.452C308.543 182.284 308.711 182.086 308.831 181.858C308.963 181.618 309.029 181.342 309.029 181.03V177.682C309.029 177.37 308.963 177.1 308.831 176.872C308.711 176.632 308.543 176.434 308.327 176.278C308.111 176.11 307.859 175.984 307.571 175.9C307.283 175.816 306.977 175.774 306.653 175.774C305.813 175.774 305.159 176.032 304.691 176.548C304.235 177.052 304.007 177.724 304.007 178.564V180.148C304.007 180.988 304.235 181.666 304.691 182.182C305.159 182.686 305.813 182.938 306.653 182.938ZM313.612 182.776H316.852V171.904H313.612V170.68H318.292V182.776H321.532V184H313.612V182.776ZM328.365 184.216C327.717 184.216 327.129 184.102 326.601 183.874C326.085 183.646 325.641 183.322 325.269 182.902C324.909 182.47 324.633 181.96 324.441 181.372C324.249 180.772 324.153 180.1 324.153 179.356C324.153 178.624 324.249 177.958 324.441 177.358C324.633 176.758 324.909 176.248 325.269 175.828C325.641 175.396 326.085 175.066 326.601 174.838C327.129 174.61 327.717 174.496 328.365 174.496C329.013 174.496 329.595 174.61 330.111 174.838C330.639 175.066 331.083 175.396 331.443 175.828C331.815 176.248 332.097 176.758 332.289 177.358C332.481 177.958 332.577 178.624 332.577 179.356C332.577 180.1 332.481 180.772 332.289 181.372C332.097 181.96 331.815 182.47 331.443 182.902C331.083 183.322 330.639 183.646 330.111 183.874C329.595 184.102 329.013 184.216 328.365 184.216ZM328.365 182.974C329.169 182.974 329.817 182.734 330.309 182.254C330.801 181.774 331.047 181.03 331.047 180.022V178.69C331.047 177.682 330.801 176.938 330.309 176.458C329.817 175.978 329.169 175.738 328.365 175.738C327.561 175.738 326.913 175.978 326.421 176.458C325.929 176.938 325.683 177.682 325.683 178.69V180.022C325.683 181.03 325.929 181.774 326.421 182.254C326.913 182.734 327.561 182.974 328.365 182.974ZM335.144 182.776H337.862V175.936H335.144V174.712H339.302V177.052H339.392C339.584 176.32 339.944 175.75 340.472 175.342C341.012 174.922 341.696 174.712 342.524 174.712H343.82V176.152H342.074C341.246 176.152 340.574 176.392 340.058 176.872C339.554 177.352 339.302 177.982 339.302 178.762V182.776H342.902V184H335.144V182.776ZM352.201 182.488H352.129C351.529 183.64 350.575 184.216 349.267 184.216C348.127 184.216 347.233 183.79 346.585 182.938C345.949 182.086 345.631 180.892 345.631 179.356C345.631 177.82 345.949 176.626 346.585 175.774C347.233 174.922 348.127 174.496 349.267 174.496C350.575 174.496 351.529 175.072 352.129 176.224H352.201V170.68H353.641V184H352.201V182.488ZM349.825 182.938C350.149 182.938 350.455 182.896 350.743 182.812C351.031 182.728 351.283 182.608 351.499 182.452C351.715 182.284 351.883 182.086 352.003 181.858C352.135 181.618 352.201 181.342 352.201 181.03V177.682C352.201 177.37 352.135 177.1 352.003 176.872C351.883 176.632 351.715 176.434 351.499 176.278C351.283 176.11 351.031 175.984 350.743 175.9C350.455 175.816 350.149 175.774 349.825 175.774C348.985 175.774 348.331 176.032 347.863 176.548C347.407 177.052 347.179 177.724 347.179 178.564V180.148C347.179 180.988 347.407 181.666 347.863 182.182C348.331 182.686 348.985 182.938 349.825 182.938Z" fill="white"/>
<rect x="372" y="165" width="89" height="24" rx="10" fill="#FE5424"/>
<path d="M390.156 172.75V184H388.644V172.75H384.45V171.436H394.35V172.75H390.156ZM400.355 184.216C399.683 184.216 399.077 184.102 398.537 183.874C398.009 183.646 397.553 183.322 397.169 182.902C396.797 182.47 396.509 181.96 396.305 181.372C396.101 180.772 395.999 180.106 395.999 179.374C395.999 178.63 396.101 177.958 396.305 177.358C396.521 176.758 396.815 176.248 397.187 175.828C397.559 175.396 398.003 175.066 398.519 174.838C399.047 174.61 399.629 174.496 400.265 174.496C400.889 174.496 401.453 174.61 401.957 174.838C402.473 175.066 402.911 175.384 403.271 175.792C403.631 176.188 403.907 176.662 404.099 177.214C404.291 177.766 404.387 178.372 404.387 179.032V179.716H397.511V180.148C397.511 180.556 397.577 180.934 397.709 181.282C397.841 181.63 398.027 181.93 398.267 182.182C398.519 182.434 398.819 182.632 399.167 182.776C399.527 182.908 399.923 182.974 400.355 182.974C400.979 182.974 401.519 182.83 401.975 182.542C402.431 182.254 402.779 181.858 403.019 181.354L404.081 182.074C403.805 182.698 403.343 183.214 402.695 183.622C402.059 184.018 401.279 184.216 400.355 184.216ZM400.265 175.684C399.869 175.684 399.503 175.756 399.167 175.9C398.831 176.044 398.537 176.242 398.285 176.494C398.045 176.746 397.853 177.046 397.709 177.394C397.577 177.73 397.511 178.102 397.511 178.51V178.636H402.839V178.438C402.839 178.03 402.773 177.658 402.641 177.322C402.521 176.986 402.347 176.698 402.119 176.458C401.903 176.206 401.633 176.014 401.309 175.882C400.997 175.75 400.649 175.684 400.265 175.684ZM407.35 184V174.712H408.79V176.224H408.862C408.958 175.996 409.078 175.78 409.222 175.576C409.366 175.36 409.54 175.174 409.744 175.018C409.96 174.862 410.212 174.736 410.5 174.64C410.788 174.544 411.124 174.496 411.508 174.496C412.48 174.496 413.26 174.808 413.848 175.432C414.436 176.044 414.73 176.914 414.73 178.042V184H413.29V178.294C413.29 177.442 413.104 176.812 412.732 176.404C412.36 175.984 411.814 175.774 411.094 175.774C410.806 175.774 410.524 175.81 410.248 175.882C409.972 175.954 409.726 176.062 409.51 176.206C409.294 176.35 409.12 176.536 408.988 176.764C408.856 176.992 408.79 177.256 408.79 177.556V184H407.35ZM425.289 184C424.725 184 424.323 183.856 424.083 183.568C423.843 183.28 423.693 182.92 423.633 182.488H423.543C423.339 183.028 423.009 183.454 422.553 183.766C422.109 184.066 421.509 184.216 420.753 184.216C419.781 184.216 419.007 183.964 418.431 183.46C417.855 182.956 417.567 182.266 417.567 181.39C417.567 180.526 417.879 179.86 418.503 179.392C419.139 178.924 420.159 178.69 421.563 178.69H423.543V177.772C423.543 177.088 423.351 176.578 422.967 176.242C422.583 175.894 422.037 175.72 421.329 175.72C420.705 175.72 420.195 175.846 419.799 176.098C419.403 176.338 419.085 176.668 418.845 177.088L417.873 176.368C417.993 176.128 418.155 175.894 418.359 175.666C418.563 175.438 418.815 175.24 419.115 175.072C419.415 174.892 419.757 174.754 420.141 174.658C420.525 174.55 420.951 174.496 421.419 174.496C422.511 174.496 423.375 174.772 424.011 175.324C424.659 175.876 424.983 176.644 424.983 177.628V182.74H426.279V184H425.289ZM421.005 183.01C421.377 183.01 421.713 182.968 422.013 182.884C422.325 182.788 422.595 182.668 422.823 182.524C423.051 182.368 423.225 182.188 423.345 181.984C423.477 181.768 423.543 181.54 423.543 181.3V179.77H421.563C420.699 179.77 420.069 179.89 419.673 180.13C419.277 180.37 419.079 180.718 419.079 181.174V181.552C419.079 182.032 419.247 182.398 419.583 182.65C419.931 182.89 420.405 183.01 421.005 183.01ZM428.936 184V174.712H430.376V176.224H430.448C430.544 175.996 430.664 175.78 430.808 175.576C430.952 175.36 431.126 175.174 431.33 175.018C431.546 174.862 431.798 174.736 432.086 174.64C432.374 174.544 432.71 174.496 433.094 174.496C434.066 174.496 434.846 174.808 435.434 175.432C436.022 176.044 436.316 176.914 436.316 178.042V184H434.876V178.294C434.876 177.442 434.69 176.812 434.318 176.404C433.946 175.984 433.4 175.774 432.68 175.774C432.392 175.774 432.11 175.81 431.834 175.882C431.558 175.954 431.312 176.062 431.096 176.206C430.88 176.35 430.706 176.536 430.574 176.764C430.442 176.992 430.376 177.256 430.376 177.556V184H428.936ZM443.815 184C443.107 184 442.585 183.802 442.249 183.406C441.925 183.01 441.763 182.5 441.763 181.876V175.936H438.667V174.712H440.971C441.283 174.712 441.499 174.652 441.619 174.532C441.751 174.4 441.817 174.178 441.817 173.866V171.436H443.203V174.712H447.433V175.936H443.203V182.776H447.433V184H443.815Z" fill="white"/>
<path d="M138.227 137.182C138.227 138.409 138.006 139.47 137.562 140.364C137.119 141.258 136.511 141.947 135.739 142.432C134.966 142.917 134.083 143.159 133.091 143.159C132.098 143.159 131.216 142.917 130.443 142.432C129.67 141.947 129.063 141.258 128.619 140.364C128.176 139.47 127.955 138.409 127.955 137.182C127.955 135.955 128.176 134.894 128.619 134C129.063 133.106 129.67 132.417 130.443 131.932C131.216 131.447 132.098 131.205 133.091 131.205C134.083 131.205 134.966 131.447 135.739 131.932C136.511 132.417 137.119 133.106 137.562 134C138.006 134.894 138.227 135.955 138.227 137.182ZM136.864 137.182C136.864 136.174 136.695 135.324 136.358 134.631C136.025 133.938 135.572 133.413 135 133.057C134.432 132.701 133.795 132.523 133.091 132.523C132.386 132.523 131.748 132.701 131.176 133.057C130.608 133.413 130.155 133.938 129.818 134.631C129.485 135.324 129.318 136.174 129.318 137.182C129.318 138.189 129.485 139.04 129.818 139.733C130.155 140.426 130.608 140.951 131.176 141.307C131.748 141.663 132.386 141.841 133.091 141.841C133.795 141.841 134.432 141.663 135 141.307C135.572 140.951 136.025 140.426 136.358 139.733C136.695 139.04 136.864 138.189 136.864 137.182ZM142.71 143L139.528 131.364H140.96L143.392 140.841H143.506L145.983 131.364H147.574L150.051 140.841H150.165L152.597 131.364H154.028L150.847 143H149.392L146.824 133.727H146.733L144.165 143H142.71ZM165.011 131.364V143H163.648L157.307 133.864H157.193V143H155.784V131.364H157.148L163.511 140.523H163.625V131.364H165.011ZM167.831 143V131.364H174.854V132.614H169.24V136.545H174.49V137.795H169.24V141.75H174.945V143H167.831ZM177.393 143V131.364H181.325C182.234 131.364 182.981 131.519 183.564 131.83C184.147 132.136 184.579 132.559 184.859 133.097C185.14 133.634 185.28 134.246 185.28 134.932C185.28 135.617 185.14 136.225 184.859 136.756C184.579 137.286 184.149 137.703 183.57 138.006C182.99 138.305 182.25 138.455 181.348 138.455H178.166V137.182H181.303C181.924 137.182 182.424 137.091 182.803 136.909C183.185 136.727 183.462 136.47 183.632 136.136C183.806 135.799 183.893 135.398 183.893 134.932C183.893 134.466 183.806 134.059 183.632 133.71C183.458 133.362 183.179 133.093 182.797 132.903C182.414 132.71 181.909 132.614 181.28 132.614H178.803V143H177.393ZM182.871 137.773L185.734 143H184.098L181.28 137.773H182.871ZM193.991 134.273C193.923 133.697 193.647 133.25 193.162 132.932C192.677 132.614 192.082 132.455 191.378 132.455C190.863 132.455 190.412 132.538 190.026 132.705C189.643 132.871 189.344 133.1 189.128 133.392C188.916 133.684 188.81 134.015 188.81 134.386C188.81 134.697 188.884 134.964 189.031 135.188C189.183 135.407 189.376 135.591 189.611 135.739C189.846 135.883 190.092 136.002 190.349 136.097C190.607 136.187 190.844 136.261 191.06 136.318L192.241 136.636C192.545 136.716 192.882 136.826 193.253 136.966C193.628 137.106 193.986 137.297 194.327 137.54C194.671 137.778 194.955 138.085 195.179 138.46C195.402 138.835 195.514 139.295 195.514 139.841C195.514 140.47 195.349 141.038 195.02 141.545C194.694 142.053 194.217 142.456 193.588 142.756C192.963 143.055 192.204 143.205 191.31 143.205C190.476 143.205 189.755 143.07 189.145 142.801C188.539 142.532 188.062 142.157 187.713 141.676C187.368 141.195 187.173 140.636 187.128 140H188.582C188.62 140.439 188.768 140.803 189.026 141.091C189.287 141.375 189.616 141.587 190.014 141.727C190.416 141.864 190.848 141.932 191.31 141.932C191.848 141.932 192.33 141.845 192.759 141.67C193.187 141.492 193.526 141.246 193.776 140.932C194.026 140.614 194.151 140.242 194.151 139.818C194.151 139.432 194.043 139.117 193.827 138.875C193.611 138.633 193.327 138.436 192.974 138.284C192.622 138.133 192.241 138 191.832 137.886L190.401 137.477C189.491 137.216 188.772 136.843 188.241 136.358C187.711 135.873 187.446 135.239 187.446 134.455C187.446 133.803 187.622 133.235 187.974 132.75C188.33 132.261 188.808 131.883 189.406 131.614C190.009 131.341 190.681 131.205 191.423 131.205C192.173 131.205 192.84 131.339 193.423 131.608C194.007 131.873 194.469 132.237 194.81 132.699C195.154 133.161 195.336 133.686 195.355 134.273H193.991ZM197.831 143V131.364H199.24V136.545H205.445V131.364H206.854V143H205.445V137.795H199.24V143H197.831ZM211.084 131.364V143H209.675V131.364H211.084ZM213.909 143V131.364H217.841C218.754 131.364 219.5 131.528 220.08 131.858C220.663 132.184 221.095 132.625 221.375 133.182C221.655 133.739 221.795 134.36 221.795 135.045C221.795 135.731 221.655 136.354 221.375 136.915C221.098 137.475 220.67 137.922 220.091 138.256C219.511 138.585 218.769 138.75 217.864 138.75H215.045V137.5H217.818C218.443 137.5 218.945 137.392 219.324 137.176C219.703 136.96 219.977 136.669 220.148 136.301C220.322 135.93 220.409 135.511 220.409 135.045C220.409 134.58 220.322 134.163 220.148 133.795C219.977 133.428 219.701 133.14 219.318 132.932C218.936 132.72 218.428 132.614 217.795 132.614H215.318V143H213.909Z" fill="#0C0C45"/>
<rect x="103" y="394" width="504" height="180" rx="8" fill="#F5F5F5"/>
<path d="M132.424 425.192C131.005 425.192 129.901 424.712 129.112 423.752C128.323 422.781 127.928 421.357 127.928 419.48C127.928 417.603 128.323 416.163 129.112 415.16C129.901 414.147 131.005 413.64 132.424 413.64C133.363 413.64 134.147 413.853 134.776 414.28C135.416 414.707 135.912 415.309 136.264 416.088L135.176 416.744C134.952 416.168 134.611 415.709 134.152 415.368C133.693 415.016 133.117 414.84 132.424 414.84C131.944 414.84 131.512 414.931 131.128 415.112C130.755 415.293 130.435 415.555 130.168 415.896C129.912 416.227 129.715 416.627 129.576 417.096C129.437 417.555 129.368 418.072 129.368 418.648V420.312C129.368 421.464 129.635 422.365 130.168 423.016C130.701 423.667 131.453 423.992 132.424 423.992C133.139 423.992 133.736 423.811 134.216 423.448C134.696 423.075 135.048 422.584 135.272 421.976L136.344 422.648C135.992 423.437 135.485 424.061 134.824 424.52C134.163 424.968 133.363 425.192 132.424 425.192ZM142.398 425.192C141.673 425.192 141.017 425.069 140.43 424.824C139.854 424.568 139.358 424.2 138.942 423.72C138.537 423.229 138.222 422.627 137.998 421.912C137.774 421.187 137.662 420.355 137.662 419.416C137.662 418.477 137.774 417.651 137.998 416.936C138.222 416.221 138.537 415.619 138.942 415.128C139.358 414.637 139.854 414.269 140.43 414.024C141.017 413.768 141.673 413.64 142.398 413.64C143.113 413.64 143.764 413.768 144.35 414.024C144.937 414.269 145.433 414.637 145.838 415.128C146.254 415.619 146.574 416.221 146.798 416.936C147.022 417.651 147.134 418.477 147.134 419.416C147.134 420.355 147.022 421.187 146.798 421.912C146.574 422.627 146.254 423.229 145.838 423.72C145.433 424.2 144.937 424.568 144.35 424.824C143.764 425.069 143.113 425.192 142.398 425.192ZM142.398 423.992C142.878 423.992 143.321 423.907 143.726 423.736C144.132 423.565 144.478 423.32 144.766 423C145.065 422.68 145.294 422.296 145.454 421.848C145.614 421.4 145.694 420.899 145.694 420.344V418.488C145.694 417.933 145.614 417.432 145.454 416.984C145.294 416.536 145.065 416.152 144.766 415.832C144.478 415.512 144.132 415.267 143.726 415.096C143.321 414.925 142.878 414.84 142.398 414.84C141.918 414.84 141.476 414.925 141.07 415.096C140.665 415.267 140.313 415.512 140.014 415.832C139.726 416.152 139.502 416.536 139.342 416.984C139.182 417.432 139.102 417.933 139.102 418.488V420.344C139.102 420.899 139.182 421.4 139.342 421.848C139.502 422.296 139.726 422.68 140.014 423C140.313 423.32 140.665 423.565 141.07 423.736C141.476 423.907 141.918 423.992 142.398 423.992ZM152.255 418.184L150.911 415.704H150.863V425H149.551V413.832H151.103L155.183 420.648L156.527 423.128H156.575V413.832H157.887V425H156.335L152.255 418.184ZM163.999 425.192C163.092 425.192 162.319 425.021 161.679 424.68C161.039 424.328 160.495 423.848 160.047 423.24L161.039 422.408C161.434 422.931 161.871 423.331 162.351 423.608C162.831 423.875 163.396 424.008 164.047 424.008C164.847 424.008 165.455 423.816 165.871 423.432C166.298 423.048 166.511 422.536 166.511 421.896C166.511 421.363 166.351 420.952 166.031 420.664C165.711 420.376 165.183 420.147 164.447 419.976L163.535 419.768C162.511 419.533 161.727 419.181 161.183 418.712C160.65 418.232 160.383 417.56 160.383 416.696C160.383 416.205 160.474 415.768 160.655 415.384C160.836 415 161.087 414.68 161.407 414.424C161.738 414.168 162.127 413.976 162.575 413.848C163.034 413.709 163.535 413.64 164.079 413.64C164.922 413.64 165.642 413.795 166.239 414.104C166.847 414.413 167.359 414.867 167.775 415.464L166.767 416.2C166.458 415.773 166.084 415.437 165.647 415.192C165.21 414.947 164.666 414.824 164.015 414.824C163.3 414.824 162.735 414.979 162.319 415.288C161.914 415.587 161.711 416.04 161.711 416.648C161.711 417.181 161.882 417.587 162.223 417.864C162.575 418.131 163.103 418.344 163.807 418.504L164.719 418.712C165.818 418.957 166.612 419.331 167.103 419.832C167.594 420.333 167.839 421 167.839 421.832C167.839 422.344 167.748 422.808 167.567 423.224C167.396 423.64 167.146 423.992 166.815 424.28C166.484 424.568 166.079 424.792 165.599 424.952C165.13 425.112 164.596 425.192 163.999 425.192ZM171.424 413.832V420.744C171.424 421.811 171.621 422.621 172.016 423.176C172.411 423.72 173.104 423.992 174.096 423.992C175.088 423.992 175.781 423.72 176.176 423.176C176.571 422.621 176.768 421.811 176.768 420.744V413.832H178.112V420.424C178.112 421.235 178.037 421.939 177.888 422.536C177.749 423.133 177.52 423.629 177.2 424.024C176.88 424.419 176.459 424.712 175.936 424.904C175.424 425.096 174.795 425.192 174.048 425.192C173.301 425.192 172.672 425.096 172.16 424.904C171.659 424.712 171.253 424.419 170.944 424.024C170.635 423.629 170.411 423.133 170.272 422.536C170.144 421.939 170.08 421.235 170.08 420.424V413.832H171.424ZM189.708 415.592H189.628L188.684 417.464L186.012 422.328L183.34 417.464L182.396 415.592H182.316V425H181.004V413.832H182.796L185.996 419.848H186.076L189.292 413.832H191.02V425H189.708V415.592ZM193.988 425V413.832H198.436C199.439 413.832 200.207 414.12 200.74 414.696C201.284 415.261 201.556 416.04 201.556 417.032C201.556 418.024 201.284 418.808 200.74 419.384C200.207 419.949 199.439 420.232 198.436 420.232H195.332V425H193.988ZM195.332 419.048H198.436C198.969 419.048 199.38 418.909 199.668 418.632C199.967 418.355 200.116 417.96 200.116 417.448V416.616C200.116 416.104 199.967 415.709 199.668 415.432C199.38 415.155 198.969 415.016 198.436 415.016H195.332V419.048ZM207.451 415.016V425H206.107V415.016H202.555V413.832H211.003V415.016H207.451ZM212.21 425V423.88H213.778V414.952H212.21V413.832H216.69V414.952H215.122V423.88H216.69V425H212.21ZM223.32 425.192C222.595 425.192 221.939 425.069 221.352 424.824C220.776 424.568 220.28 424.2 219.864 423.72C219.459 423.229 219.144 422.627 218.92 421.912C218.696 421.187 218.584 420.355 218.584 419.416C218.584 418.477 218.696 417.651 218.92 416.936C219.144 416.221 219.459 415.619 219.864 415.128C220.28 414.637 220.776 414.269 221.352 414.024C221.939 413.768 222.595 413.64 223.32 413.64C224.035 413.64 224.686 413.768 225.272 414.024C225.859 414.269 226.355 414.637 226.76 415.128C227.176 415.619 227.496 416.221 227.72 416.936C227.944 417.651 228.056 418.477 228.056 419.416C228.056 420.355 227.944 421.187 227.72 421.912C227.496 422.627 227.176 423.229 226.76 423.72C226.355 424.2 225.859 424.568 225.272 424.824C224.686 425.069 224.035 425.192 223.32 425.192ZM223.32 423.992C223.8 423.992 224.243 423.907 224.648 423.736C225.054 423.565 225.4 423.32 225.688 423C225.987 422.68 226.216 422.296 226.376 421.848C226.536 421.4 226.616 420.899 226.616 420.344V418.488C226.616 417.933 226.536 417.432 226.376 416.984C226.216 416.536 225.987 416.152 225.688 415.832C225.4 415.512 225.054 415.267 224.648 415.096C224.243 414.925 223.8 414.84 223.32 414.84C222.84 414.84 222.398 414.925 221.992 415.096C221.587 415.267 221.235 415.512 220.936 415.832C220.648 416.152 220.424 416.536 220.264 416.984C220.104 417.432 220.024 417.933 220.024 418.488V420.344C220.024 420.899 220.104 421.4 220.264 421.848C220.424 422.296 220.648 422.68 220.936 423C221.235 423.32 221.587 423.565 221.992 423.736C222.398 423.907 222.84 423.992 223.32 423.992ZM233.176 418.184L231.832 415.704H231.784V425H230.472V413.832H232.024L236.104 420.648L237.448 423.128H237.496V413.832H238.808V425H237.256L233.176 418.184Z" fill="#0C0C45"/>
<path d="M133.976 438.928H129.624V444H128.28V432.832H129.624V437.76H133.976V432.832H135.32V444H133.976V438.928ZM141.394 444.192C140.818 444.192 140.295 444.091 139.826 443.888C139.367 443.685 138.972 443.397 138.642 443.024C138.322 442.64 138.076 442.187 137.906 441.664C137.735 441.131 137.65 440.533 137.65 439.872C137.65 439.221 137.735 438.629 137.906 438.096C138.076 437.563 138.322 437.109 138.642 436.736C138.972 436.352 139.367 436.059 139.826 435.856C140.295 435.653 140.818 435.552 141.394 435.552C141.97 435.552 142.487 435.653 142.946 435.856C143.415 436.059 143.81 436.352 144.13 436.736C144.46 437.109 144.711 437.563 144.882 438.096C145.052 438.629 145.138 439.221 145.138 439.872C145.138 440.533 145.052 441.131 144.882 441.664C144.711 442.187 144.46 442.64 144.13 443.024C143.81 443.397 143.415 443.685 142.946 443.888C142.487 444.091 141.97 444.192 141.394 444.192ZM141.394 443.088C142.108 443.088 142.684 442.875 143.122 442.448C143.559 442.021 143.778 441.36 143.778 440.464V439.28C143.778 438.384 143.559 437.723 143.122 437.296C142.684 436.869 142.108 436.656 141.394 436.656C140.679 436.656 140.103 436.869 139.666 437.296C139.228 437.723 139.01 438.384 139.01 439.28V440.464C139.01 441.36 139.228 442.021 139.666 442.448C140.103 442.875 140.679 443.088 141.394 443.088ZM146.668 435.744H147.804L148.748 442.88H148.892L150.299 435.744H151.708L153.116 442.88H153.26L154.204 435.744H155.308L154.044 444H152.38L151.068 437.088H150.94L149.596 444H147.932L146.668 435.744ZM166.239 444V435.744H167.423V436.704H167.487C167.615 436.384 167.796 436.112 168.031 435.888C168.266 435.664 168.612 435.552 169.071 435.552C169.551 435.552 169.908 435.675 170.143 435.92C170.378 436.155 170.522 436.464 170.575 436.848H170.623C170.772 436.475 170.986 436.165 171.263 435.92C171.54 435.675 171.924 435.552 172.415 435.552C173.087 435.552 173.535 435.787 173.759 436.256C173.994 436.725 174.111 437.397 174.111 438.272V444H172.927V438.48C172.927 437.776 172.852 437.291 172.703 437.024C172.564 436.747 172.303 436.608 171.919 436.608C171.578 436.608 171.3 436.72 171.087 436.944C170.874 437.157 170.767 437.488 170.767 437.936V444H169.583V438.48C169.583 437.776 169.508 437.291 169.359 437.024C169.22 436.747 168.964 436.608 168.591 436.608C168.25 436.608 167.967 436.72 167.743 436.944C167.53 437.157 167.423 437.488 167.423 437.936V444H166.239ZM181.721 442.656H181.657C181.571 442.859 181.465 443.056 181.337 443.248C181.209 443.429 181.049 443.589 180.857 443.728C180.675 443.867 180.457 443.979 180.201 444.064C179.945 444.149 179.646 444.192 179.305 444.192C178.441 444.192 177.747 443.92 177.225 443.376C176.702 442.821 176.441 442.043 176.441 441.04V435.744H177.721V440.816C177.721 441.573 177.886 442.139 178.217 442.512C178.547 442.875 179.033 443.056 179.673 443.056C179.929 443.056 180.179 443.024 180.425 442.96C180.67 442.896 180.889 442.8 181.081 442.672C181.273 442.544 181.427 442.384 181.545 442.192C181.662 441.989 181.721 441.749 181.721 441.472V435.744H183.001V444H181.721V442.656ZM189.651 444.192C189.053 444.192 188.52 444.091 188.051 443.888C187.592 443.675 187.203 443.381 186.883 443.008C186.563 442.635 186.317 442.181 186.147 441.648C185.987 441.115 185.907 440.523 185.907 439.872C185.907 439.221 185.992 438.629 186.163 438.096C186.333 437.563 186.579 437.109 186.899 436.736C187.219 436.352 187.608 436.059 188.067 435.856C188.525 435.653 189.048 435.552 189.635 435.552C190.435 435.552 191.085 435.728 191.587 436.08C192.088 436.432 192.456 436.891 192.691 437.456L191.667 438C191.517 437.573 191.267 437.243 190.915 437.008C190.573 436.773 190.147 436.656 189.635 436.656C189.261 436.656 188.925 436.72 188.627 436.848C188.339 436.965 188.093 437.136 187.891 437.36C187.688 437.584 187.533 437.851 187.427 438.16C187.331 438.469 187.283 438.805 187.283 439.168V440.576C187.283 440.939 187.331 441.275 187.427 441.584C187.533 441.893 187.688 442.16 187.891 442.384C188.093 442.608 188.344 442.784 188.643 442.912C188.941 443.029 189.283 443.088 189.667 443.088C190.221 443.088 190.68 442.96 191.043 442.704C191.405 442.448 191.693 442.096 191.907 441.648L192.819 442.272C192.573 442.827 192.189 443.285 191.667 443.648C191.155 444.011 190.483 444.192 189.651 444.192ZM195.724 432.16H197.004V437.088H197.068C197.154 436.885 197.26 436.693 197.388 436.512C197.516 436.32 197.671 436.155 197.852 436.016C198.044 435.877 198.268 435.765 198.524 435.68C198.78 435.595 199.079 435.552 199.42 435.552C200.284 435.552 200.978 435.829 201.5 436.384C202.023 436.928 202.284 437.701 202.284 438.704V444H201.004V438.928C201.004 438.171 200.839 437.611 200.508 437.248C200.178 436.875 199.692 436.688 199.052 436.688C198.796 436.688 198.546 436.72 198.3 436.784C198.055 436.848 197.836 436.944 197.644 437.072C197.452 437.2 197.298 437.365 197.18 437.568C197.063 437.771 197.004 438.005 197.004 438.272V444H195.724V432.16ZM218.656 433.92C218.282 433.92 218.021 433.845 217.872 433.696C217.722 433.536 217.648 433.339 217.648 433.104V432.848C217.648 432.613 217.722 432.421 217.872 432.272C218.021 432.112 218.282 432.032 218.656 432.032C219.029 432.032 219.29 432.112 219.44 432.272C219.589 432.421 219.664 432.613 219.664 432.848V433.104C219.664 433.339 219.589 433.536 219.44 433.696C219.29 433.845 219.029 433.92 218.656 433.92ZM215.04 442.912H218.016V436.832H215.04V435.744H219.296V442.912H222.08V444H215.04V442.912ZM227.834 444.192C226.97 444.192 226.223 444.048 225.594 443.76C224.975 443.461 224.447 443.067 224.01 442.576L224.874 441.824C225.268 442.24 225.7 442.56 226.17 442.784C226.639 443.008 227.204 443.12 227.866 443.12C228.506 443.12 229.028 443.008 229.434 442.784C229.85 442.549 230.058 442.187 230.058 441.696C230.058 441.483 230.015 441.307 229.93 441.168C229.855 441.019 229.748 440.901 229.61 440.816C229.471 440.731 229.316 440.667 229.146 440.624C228.975 440.571 228.794 440.528 228.602 440.496L227.306 440.304C227.018 440.261 226.703 440.203 226.362 440.128C226.031 440.053 225.727 439.936 225.45 439.776C225.172 439.605 224.938 439.381 224.746 439.104C224.564 438.827 224.474 438.464 224.474 438.016C224.474 437.6 224.554 437.243 224.714 436.944C224.884 436.635 225.119 436.379 225.418 436.176C225.716 435.963 226.068 435.808 226.474 435.712C226.879 435.605 227.322 435.552 227.802 435.552C228.548 435.552 229.194 435.669 229.738 435.904C230.292 436.139 230.767 436.464 231.161 436.88L230.33 437.664C230.234 437.547 230.111 437.429 229.962 437.312C229.823 437.184 229.647 437.072 229.434 436.976C229.231 436.869 228.991 436.784 228.714 436.72C228.436 436.656 228.116 436.624 227.754 436.624C227.103 436.624 226.602 436.736 226.25 436.96C225.908 437.184 225.738 437.509 225.738 437.936C225.738 438.149 225.775 438.331 225.85 438.48C225.935 438.619 226.047 438.731 226.186 438.816C226.324 438.901 226.479 438.971 226.65 439.024C226.831 439.067 227.012 439.104 227.194 439.136L228.49 439.328C228.788 439.371 229.103 439.429 229.434 439.504C229.764 439.579 230.068 439.701 230.346 439.872C230.623 440.032 230.852 440.251 231.034 440.528C231.226 440.805 231.322 441.168 231.322 441.616C231.322 442.437 231.002 443.072 230.362 443.52C229.732 443.968 228.89 444.192 227.834 444.192ZM249.597 435.744H250.877L246.781 445.808C246.685 446.043 246.578 446.245 246.461 446.416C246.344 446.597 246.205 446.741 246.045 446.848C245.885 446.965 245.693 447.051 245.469 447.104C245.245 447.168 244.978 447.2 244.669 447.2H243.453V446.112H245.373L246.301 443.84L242.973 435.744H244.285L245.677 439.2L246.909 442.336H246.973L248.205 439.2L249.597 435.744ZM256.519 444.192C255.943 444.192 255.42 444.091 254.951 443.888C254.492 443.685 254.097 443.397 253.767 443.024C253.447 442.64 253.201 442.187 253.031 441.664C252.86 441.131 252.775 440.533 252.775 439.872C252.775 439.221 252.86 438.629 253.031 438.096C253.201 437.563 253.447 437.109 253.767 436.736C254.097 436.352 254.492 436.059 254.951 435.856C255.42 435.653 255.943 435.552 256.519 435.552C257.095 435.552 257.612 435.653 258.071 435.856C258.54 436.059 258.935 436.352 259.255 436.736C259.585 437.109 259.836 437.563 260.007 438.096C260.177 438.629 260.263 439.221 260.263 439.872C260.263 440.533 260.177 441.131 260.007 441.664C259.836 442.187 259.585 442.64 259.255 443.024C258.935 443.397 258.54 443.685 258.071 443.888C257.612 444.091 257.095 444.192 256.519 444.192ZM256.519 443.088C257.233 443.088 257.809 442.875 258.247 442.448C258.684 442.021 258.903 441.36 258.903 440.464V439.28C258.903 438.384 258.684 437.723 258.247 437.296C257.809 436.869 257.233 436.656 256.519 436.656C255.804 436.656 255.228 436.869 254.791 437.296C254.353 437.723 254.135 438.384 254.135 439.28V440.464C254.135 441.36 254.353 442.021 254.791 442.448C255.228 442.875 255.804 443.088 256.519 443.088ZM268.065 442.656H268.001C267.915 442.859 267.809 443.056 267.681 443.248C267.553 443.429 267.393 443.589 267.201 443.728C267.019 443.867 266.801 443.979 266.545 444.064C266.289 444.149 265.99 444.192 265.649 444.192C264.785 444.192 264.091 443.92 263.569 443.376C263.046 442.821 262.785 442.043 262.785 441.04V435.744H264.065V440.816C264.065 441.573 264.23 442.139 264.561 442.512C264.891 442.875 265.377 443.056 266.016 443.056C266.273 443.056 266.523 443.024 266.769 442.96C267.014 442.896 267.233 442.8 267.425 442.672C267.617 442.544 267.771 442.384 267.889 442.192C268.006 441.989 268.065 441.749 268.065 441.472V435.744H269.345V444H268.065V442.656ZM272.138 442.912H274.554V436.832H272.138V435.744H275.834V437.824H275.914C276.085 437.173 276.405 436.667 276.874 436.304C277.354 435.931 277.962 435.744 278.698 435.744H279.85V437.024H278.298C277.562 437.024 276.965 437.237 276.506 437.664C276.058 438.091 275.834 438.651 275.834 439.344V442.912H279.034V444H272.138V442.912ZM295.038 444.192C294.44 444.192 293.902 444.091 293.422 443.888C292.952 443.685 292.547 443.397 292.206 443.024C291.875 442.64 291.619 442.187 291.438 441.664C291.256 441.131 291.166 440.539 291.166 439.888C291.166 439.227 291.256 438.629 291.438 438.096C291.63 437.563 291.891 437.109 292.222 436.736C292.552 436.352 292.947 436.059 293.406 435.856C293.875 435.653 294.392 435.552 294.958 435.552C295.512 435.552 296.014 435.653 296.462 435.856C296.92 436.059 297.31 436.341 297.63 436.704C297.95 437.056 298.195 437.477 298.366 437.968C298.536 438.459 298.622 438.997 298.622 439.584V440.192H292.51V440.576C292.51 440.939 292.568 441.275 292.686 441.584C292.803 441.893 292.968 442.16 293.182 442.384C293.406 442.608 293.672 442.784 293.982 442.912C294.302 443.029 294.654 443.088 295.038 443.088C295.592 443.088 296.072 442.96 296.478 442.704C296.883 442.448 297.192 442.096 297.406 441.648L298.35 442.288C298.104 442.843 297.694 443.301 297.118 443.664C296.552 444.016 295.859 444.192 295.038 444.192ZM294.958 436.608C294.606 436.608 294.28 436.672 293.982 436.8C293.683 436.928 293.422 437.104 293.198 437.328C292.984 437.552 292.814 437.819 292.686 438.128C292.568 438.427 292.51 438.757 292.51 439.12V439.232H297.246V439.056C297.246 438.693 297.187 438.363 297.07 438.064C296.963 437.765 296.808 437.509 296.606 437.296C296.414 437.072 296.174 436.901 295.886 436.784C295.608 436.667 295.299 436.608 294.958 436.608ZM300.968 442.912H303.848V433.248H300.968V432.16H305.128V442.912H308.008V444H300.968V442.912ZM314.225 444.192C313.628 444.192 313.089 444.091 312.609 443.888C312.14 443.685 311.735 443.397 311.393 443.024C311.063 442.64 310.807 442.187 310.625 441.664C310.444 441.131 310.353 440.539 310.353 439.888C310.353 439.227 310.444 438.629 310.625 438.096C310.817 437.563 311.079 437.109 311.409 436.736C311.74 436.352 312.135 436.059 312.593 435.856C313.063 435.653 313.58 435.552 314.145 435.552C314.7 435.552 315.201 435.653 315.649 435.856C316.108 436.059 316.497 436.341 316.817 436.704C317.137 437.056 317.383 437.477 317.553 437.968C317.724 438.459 317.809 438.997 317.809 439.584V440.192H311.697V440.576C311.697 440.939 311.756 441.275 311.873 441.584C311.991 441.893 312.156 442.16 312.369 442.384C312.593 442.608 312.86 442.784 313.169 442.912C313.489 443.029 313.841 443.088 314.225 443.088C314.78 443.088 315.26 442.96 315.665 442.704C316.071 442.448 316.38 442.096 316.593 441.648L317.537 442.288C317.292 442.843 316.881 443.301 316.305 443.664C315.74 444.016 315.047 444.192 314.225 444.192ZM314.145 436.608C313.793 436.608 313.468 436.672 313.169 436.8C312.871 436.928 312.609 437.104 312.385 437.328C312.172 437.552 312.001 437.819 311.873 438.128C311.756 438.427 311.697 438.757 311.697 439.12V439.232H316.433V439.056C316.433 438.693 316.375 438.363 316.257 438.064C316.151 437.765 315.996 437.509 315.793 437.296C315.601 437.072 315.361 436.901 315.073 436.784C314.796 436.667 314.487 436.608 314.145 436.608ZM323.963 444.192C323.366 444.192 322.832 444.091 322.363 443.888C321.904 443.675 321.515 443.381 321.195 443.008C320.875 442.635 320.63 442.181 320.459 441.648C320.299 441.115 320.219 440.523 320.219 439.872C320.219 439.221 320.304 438.629 320.475 438.096C320.646 437.563 320.891 437.109 321.211 436.736C321.531 436.352 321.92 436.059 322.379 435.856C322.838 435.653 323.36 435.552 323.947 435.552C324.747 435.552 325.398 435.728 325.899 436.08C326.4 436.432 326.768 436.891 327.003 437.456L325.979 438C325.83 437.573 325.579 437.243 325.227 437.008C324.886 436.773 324.459 436.656 323.947 436.656C323.574 436.656 323.238 436.72 322.939 436.848C322.651 436.965 322.406 437.136 322.203 437.36C322 437.584 321.846 437.851 321.739 438.16C321.643 438.469 321.595 438.805 321.595 439.168V440.576C321.595 440.939 321.643 441.275 321.739 441.584C321.846 441.893 322 442.16 322.203 442.384C322.406 442.608 322.656 442.784 322.955 442.912C323.254 443.029 323.595 443.088 323.979 443.088C324.534 443.088 324.992 442.96 325.355 442.704C325.718 442.448 326.006 442.096 326.219 441.648L327.131 442.272C326.886 442.827 326.502 443.285 325.979 443.648C325.467 444.011 324.795 444.192 323.963 444.192ZM333.669 444C333.039 444 332.575 443.824 332.277 443.472C331.989 443.12 331.845 442.667 331.845 442.112V436.832H329.093V435.744H331.141C331.418 435.744 331.61 435.691 331.717 435.584C331.834 435.467 331.893 435.269 331.893 434.992V432.832H333.125V435.744H336.885V436.832H333.125V442.912H336.885V444H333.669ZM339.295 442.912H341.711V436.832H339.295V435.744H342.991V437.824H343.071C343.241 437.173 343.561 436.667 344.031 436.304C344.511 435.931 345.119 435.744 345.855 435.744H347.007V437.024H345.455C344.719 437.024 344.121 437.237 343.663 437.664C343.215 438.091 342.991 438.651 342.991 439.344V442.912H346.191V444H339.295V442.912ZM352.968 433.92C352.595 433.92 352.334 433.845 352.184 433.696C352.035 433.536 351.96 433.339 351.96 433.104V432.848C351.96 432.613 352.035 432.421 352.184 432.272C352.334 432.112 352.595 432.032 352.968 432.032C353.342 432.032 353.603 432.112 353.752 432.272C353.902 432.421 353.976 432.613 353.976 432.848V433.104C353.976 433.339 353.902 433.536 353.752 433.696C353.603 433.845 353.342 433.92 352.968 433.92ZM349.352 442.912H352.328V436.832H349.352V435.744H353.608V442.912H356.392V444H349.352V442.912ZM362.338 444.192C361.741 444.192 361.207 444.091 360.738 443.888C360.279 443.675 359.89 443.381 359.57 443.008C359.25 442.635 359.005 442.181 358.834 441.648C358.674 441.115 358.594 440.523 358.594 439.872C358.594 439.221 358.679 438.629 358.85 438.096C359.021 437.563 359.266 437.109 359.586 436.736C359.906 436.352 360.295 436.059 360.754 435.856C361.213 435.653 361.735 435.552 362.322 435.552C363.122 435.552 363.773 435.728 364.274 436.08C364.775 436.432 365.143 436.891 365.378 437.456L364.354 438C364.205 437.573 363.954 437.243 363.602 437.008C363.261 436.773 362.834 436.656 362.322 436.656C361.949 436.656 361.613 436.72 361.314 436.848C361.026 436.965 360.781 437.136 360.578 437.36C360.375 437.584 360.221 437.851 360.114 438.16C360.018 438.469 359.97 438.805 359.97 439.168V440.576C359.97 440.939 360.018 441.275 360.114 441.584C360.221 441.893 360.375 442.16 360.578 442.384C360.781 442.608 361.031 442.784 361.33 442.912C361.629 443.029 361.97 443.088 362.354 443.088C362.909 443.088 363.367 442.96 363.73 442.704C364.093 442.448 364.381 442.096 364.594 441.648L365.506 442.272C365.261 442.827 364.877 443.285 364.354 443.648C363.842 444.011 363.17 444.192 362.338 444.192ZM372.156 433.92C371.782 433.92 371.521 433.845 371.372 433.696C371.222 433.536 371.148 433.339 371.148 433.104V432.848C371.148 432.613 371.222 432.421 371.372 432.272C371.521 432.112 371.782 432.032 372.156 432.032C372.529 432.032 372.79 432.112 372.94 432.272C373.089 432.421 373.164 432.613 373.164 432.848V433.104C373.164 433.339 373.089 433.536 372.94 433.696C372.79 433.845 372.529 433.92 372.156 433.92ZM368.54 442.912H371.516V436.832H368.54V435.744H372.796V442.912H375.58V444H368.54V442.912ZM381.638 444C381.008 444 380.544 443.824 380.246 443.472C379.958 443.12 379.814 442.667 379.814 442.112V436.832H377.062V435.744H379.11C379.387 435.744 379.579 435.691 379.686 435.584C379.803 435.467 379.862 435.269 379.862 434.992V432.832H381.094V435.744H384.854V436.832H381.094V442.912H384.854V444H381.638ZM393.503 435.744H394.783L390.687 445.808C390.591 446.043 390.485 446.245 390.367 446.416C390.25 446.597 390.111 446.741 389.951 446.848C389.791 446.965 389.599 447.051 389.375 447.104C389.151 447.168 388.885 447.2 388.575 447.2H387.359V446.112H389.279L390.207 443.84L386.879 435.744H388.191L389.583 439.2L390.815 442.336H390.879L392.111 439.2L393.503 435.744ZM406.739 432.16H408.019V437.088H408.083C408.616 436.064 409.464 435.552 410.627 435.552C411.64 435.552 412.429 435.931 412.995 436.688C413.571 437.445 413.859 438.507 413.859 439.872C413.859 441.237 413.571 442.299 412.995 443.056C412.429 443.813 411.64 444.192 410.627 444.192C409.464 444.192 408.616 443.68 408.083 442.656H408.019V444H406.739V432.16ZM410.131 443.056C410.877 443.056 411.453 442.832 411.859 442.384C412.275 441.925 412.483 441.323 412.483 440.576V439.168C412.483 438.421 412.275 437.824 411.859 437.376C411.453 436.917 410.877 436.688 410.131 436.688C409.843 436.688 409.571 436.725 409.315 436.8C409.059 436.875 408.835 436.987 408.643 437.136C408.451 437.275 408.296 437.451 408.179 437.664C408.072 437.867 408.019 438.107 408.019 438.384V441.36C408.019 441.637 408.072 441.883 408.179 442.096C408.296 442.299 408.451 442.475 408.643 442.624C408.835 442.763 409.059 442.869 409.315 442.944C409.571 443.019 409.843 443.056 410.131 443.056ZM420.125 433.92C419.751 433.92 419.49 433.845 419.341 433.696C419.191 433.536 419.117 433.339 419.117 433.104V432.848C419.117 432.613 419.191 432.421 419.341 432.272C419.49 432.112 419.751 432.032 420.125 432.032C420.498 432.032 420.759 432.112 420.909 432.272C421.058 432.421 421.133 432.613 421.133 432.848V433.104C421.133 433.339 421.058 433.536 420.909 433.696C420.759 433.845 420.498 433.92 420.125 433.92ZM416.509 442.912H419.485V436.832H416.509V435.744H420.765V442.912H423.549V444H416.509V442.912ZM425.686 442.912H428.566V433.248H425.686V432.16H429.846V442.912H432.726V444H425.686V442.912ZM435.28 442.912H438.16V433.248H435.28V432.16H439.44V442.912H442.32V444H435.28V442.912ZM447.418 440.56V438.048C448.335 438.005 449.055 437.808 449.578 437.456C450.1 437.093 450.362 436.549 450.362 435.824V435.6C450.362 435.003 450.18 434.555 449.818 434.256C449.466 433.957 448.98 433.808 448.362 433.808C447.722 433.808 447.21 433.984 446.826 434.336C446.442 434.688 446.175 435.136 446.026 435.68L444.826 435.232C444.932 434.88 445.082 434.549 445.274 434.24C445.466 433.92 445.706 433.643 445.994 433.408C446.292 433.173 446.639 432.987 447.034 432.848C447.439 432.709 447.898 432.64 448.41 432.64C448.922 432.64 449.38 432.715 449.786 432.864C450.202 433.003 450.554 433.205 450.842 433.472C451.13 433.728 451.354 434.043 451.514 434.416C451.674 434.789 451.754 435.205 451.754 435.664C451.754 436.165 451.663 436.608 451.482 436.992C451.3 437.365 451.066 437.685 450.778 437.952C450.49 438.219 450.159 438.437 449.786 438.608C449.423 438.768 449.055 438.88 448.682 438.944V440.56H447.418ZM448.106 444.144C447.668 444.144 447.359 444.053 447.178 443.872C447.007 443.691 446.922 443.461 446.922 443.184V442.896C446.922 442.619 447.007 442.389 447.178 442.208C447.359 442.027 447.668 441.936 448.106 441.936C448.543 441.936 448.847 442.027 449.018 442.208C449.199 442.389 449.29 442.619 449.29 442.896V443.184C449.29 443.461 449.199 443.691 449.018 443.872C448.847 444.053 448.543 444.144 448.106 444.144Z" fill="#333232"/>
<rect x="127" y="488" width="456" height="8" rx="4" fill="#FE5424"/>
<rect x="127.5" y="510.5" width="455" height="53" rx="7.5" fill="#F9FAFB"/>
<path d="M483.6 532.392H475.848L475.464 537.696H475.68C475.856 537.312 476.056 536.96 476.28 536.64C476.504 536.304 476.768 536.024 477.072 535.8C477.376 535.56 477.728 535.376 478.128 535.248C478.528 535.12 478.984 535.056 479.496 535.056C480.184 535.056 480.832 535.176 481.44 535.416C482.064 535.656 482.608 536.008 483.072 536.472C483.552 536.92 483.928 537.48 484.2 538.152C484.472 538.808 484.608 539.552 484.608 540.384C484.608 541.232 484.464 542.016 484.176 542.736C483.888 543.456 483.464 544.08 482.904 544.608C482.36 545.136 481.68 545.552 480.864 545.856C480.048 546.144 479.12 546.288 478.08 546.288C477.264 546.288 476.536 546.2 475.896 546.024C475.256 545.848 474.688 545.616 474.192 545.328C473.712 545.024 473.288 544.68 472.92 544.296C472.568 543.896 472.264 543.488 472.008 543.072L474.624 541.008C474.816 541.328 475.016 541.632 475.224 541.92C475.448 542.208 475.696 542.464 475.968 542.688C476.256 542.896 476.568 543.064 476.904 543.192C477.256 543.304 477.656 543.36 478.104 543.36C479 543.36 479.672 543.12 480.12 542.64C480.584 542.144 480.816 541.488 480.816 540.672V540.48C480.816 539.696 480.584 539.08 480.12 538.632C479.656 538.184 479.016 537.96 478.2 537.96C477.528 537.96 476.968 538.096 476.52 538.368C476.088 538.624 475.76 538.88 475.536 539.136L472.584 538.728L473.208 529.248H483.6V532.392ZM492.591 546.288C490.351 546.288 488.695 545.528 487.623 544.008C486.567 542.488 486.039 540.36 486.039 537.624C486.039 534.888 486.567 532.76 487.623 531.24C488.695 529.72 490.351 528.96 492.591 528.96C494.831 528.96 496.479 529.72 497.535 531.24C498.607 532.76 499.143 534.888 499.143 537.624C499.143 540.36 498.607 542.488 497.535 544.008C496.479 545.528 494.831 546.288 492.591 546.288ZM492.591 543.456C493.663 543.456 494.407 543.08 494.823 542.328C495.255 541.576 495.471 540.528 495.471 539.184V536.064C495.471 534.72 495.255 533.672 494.823 532.92C494.407 532.168 493.663 531.792 492.591 531.792C491.519 531.792 490.767 532.168 490.335 532.92C489.919 533.672 489.711 534.72 489.711 536.064V539.184C489.711 540.528 489.919 541.576 490.335 542.328C490.767 543.08 491.519 543.456 492.591 543.456ZM492.591 539.04C492.031 539.04 491.639 538.928 491.415 538.704C491.207 538.48 491.103 538.208 491.103 537.888V537.36C491.103 537.04 491.207 536.768 491.415 536.544C491.639 536.32 492.031 536.208 492.591 536.208C493.151 536.208 493.535 536.32 493.743 536.544C493.967 536.768 494.079 537.04 494.079 537.36V537.888C494.079 538.208 493.967 538.48 493.743 538.704C493.535 538.928 493.151 539.04 492.591 539.04ZM505.229 541.824H509.789L506.501 549.624H503.861L505.229 541.824ZM521.372 546.288C519.132 546.288 517.476 545.528 516.404 544.008C515.348 542.488 514.82 540.36 514.82 537.624C514.82 534.888 515.348 532.76 516.404 531.24C517.476 529.72 519.132 528.96 521.372 528.96C523.612 528.96 525.26 529.72 526.316 531.24C527.388 532.76 527.924 534.888 527.924 537.624C527.924 540.36 527.388 542.488 526.316 544.008C525.26 545.528 523.612 546.288 521.372 546.288ZM521.372 543.456C522.444 543.456 523.188 543.08 523.604 542.328C524.036 541.576 524.252 540.528 524.252 539.184V536.064C524.252 534.72 524.036 533.672 523.604 532.92C523.188 532.168 522.444 531.792 521.372 531.792C520.3 531.792 519.548 532.168 519.116 532.92C518.7 533.672 518.492 534.72 518.492 536.064V539.184C518.492 540.528 518.7 541.576 519.116 542.328C519.548 543.08 520.3 543.456 521.372 543.456ZM521.372 539.04C520.812 539.04 520.42 538.928 520.196 538.704C519.988 538.48 519.884 538.208 519.884 537.888V537.36C519.884 537.04 519.988 536.768 520.196 536.544C520.42 536.32 520.812 536.208 521.372 536.208C521.932 536.208 522.316 536.32 522.524 536.544C522.748 536.768 522.86 537.04 522.86 537.36V537.888C522.86 538.208 522.748 538.48 522.524 538.704C522.316 538.928 521.932 539.04 521.372 539.04ZM535.763 546.288C533.523 546.288 531.867 545.528 530.795 544.008C529.739 542.488 529.211 540.36 529.211 537.624C529.211 534.888 529.739 532.76 530.795 531.24C531.867 529.72 533.523 528.96 535.763 528.96C538.003 528.96 539.651 529.72 540.707 531.24C541.779 532.76 542.315 534.888 542.315 537.624C542.315 540.36 541.779 542.488 540.707 544.008C539.651 545.528 538.003 546.288 535.763 546.288ZM535.763 543.456C536.835 543.456 537.579 543.08 537.995 542.328C538.427 541.576 538.643 540.528 538.643 539.184V536.064C538.643 534.72 538.427 533.672 537.995 532.92C537.579 532.168 536.835 531.792 535.763 531.792C534.691 531.792 533.939 532.168 533.507 532.92C533.091 533.672 532.883 534.72 532.883 536.064V539.184C532.883 540.528 533.091 541.576 533.507 542.328C533.939 543.08 534.691 543.456 535.763 543.456ZM535.763 539.04C535.203 539.04 534.811 538.928 534.587 538.704C534.379 538.48 534.275 538.208 534.275 537.888V537.36C534.275 537.04 534.379 536.768 534.587 536.544C534.811 536.32 535.203 536.208 535.763 536.208C536.323 536.208 536.707 536.32 536.915 536.544C537.139 536.768 537.251 537.04 537.251 537.36V537.888C537.251 538.208 537.139 538.48 536.915 538.704C536.707 538.928 536.323 539.04 535.763 539.04ZM550.153 546.288C547.913 546.288 546.257 545.528 545.185 544.008C544.129 542.488 543.601 540.36 543.601 537.624C543.601 534.888 544.129 532.76 545.185 531.24C546.257 529.72 547.913 528.96 550.153 528.96C552.393 528.96 554.041 529.72 555.097 531.24C556.169 532.76 556.705 534.888 556.705 537.624C556.705 540.36 556.169 542.488 555.097 544.008C554.041 545.528 552.393 546.288 550.153 546.288ZM550.153 543.456C551.225 543.456 551.969 543.08 552.385 542.328C552.817 541.576 553.033 540.528 553.033 539.184V536.064C553.033 534.72 552.817 533.672 552.385 532.92C551.969 532.168 551.225 531.792 550.153 531.792C549.081 531.792 548.329 532.168 547.897 532.92C547.481 533.672 547.273 534.72 547.273 536.064V539.184C547.273 540.528 547.481 541.576 547.897 542.328C548.329 543.08 549.081 543.456 550.153 543.456ZM550.153 539.04C549.593 539.04 549.201 538.928 548.977 538.704C548.769 538.48 548.665 538.208 548.665 537.888V537.36C548.665 537.04 548.769 536.768 548.977 536.544C549.201 536.32 549.593 536.208 550.153 536.208C550.713 536.208 551.097 536.32 551.305 536.544C551.529 536.768 551.641 537.04 551.641 537.36V537.888C551.641 538.208 551.529 538.48 551.305 538.704C551.097 538.928 550.713 539.04 550.153 539.04Z" fill="#FE5424"/>
<path d="M150.312 538.992H146.088V546H142.464V529.248H146.088V536.04H150.312V529.248H153.936V546H150.312V538.992ZM162.111 539.016L160.623 541.104V546H157.023V529.248H160.623V536.256H160.815L162.639 533.472L165.591 529.248H169.623L164.607 536.328L169.863 546H165.807L162.111 539.016ZM175.853 546.24C174.653 546.144 173.597 545.88 172.685 545.448C171.789 545 171.061 544.416 170.501 543.696L172.589 541.416C173.101 541.96 173.645 542.384 174.221 542.688C174.813 542.992 175.437 543.192 176.093 543.288V538.872L175.541 538.776C174.005 538.504 172.869 537.944 172.133 537.096C171.397 536.232 171.029 535.184 171.029 533.952C171.029 532.592 171.445 531.488 172.277 530.64C173.109 529.792 174.301 529.264 175.853 529.056V526.536H178.589V529.032C179.597 529.16 180.453 529.416 181.157 529.8C181.877 530.184 182.477 530.656 182.957 531.216L180.893 533.52C180.221 532.784 179.373 532.304 178.349 532.08V536.088L178.901 536.184C180.437 536.472 181.573 537.032 182.309 537.864C183.045 538.68 183.413 539.696 183.413 540.912C183.413 541.568 183.301 542.184 183.077 542.76C182.869 543.336 182.557 543.848 182.141 544.296C181.741 544.744 181.237 545.128 180.629 545.448C180.037 545.752 179.357 545.976 178.589 546.12V548.712H175.853V546.24ZM174.413 533.832C174.413 534.344 174.541 534.736 174.797 535.008C175.069 535.264 175.501 535.472 176.093 535.632V532.008C175.501 532.104 175.069 532.304 174.797 532.608C174.541 532.912 174.413 533.32 174.413 533.832ZM180.053 541.152C180.053 540.608 179.917 540.2 179.645 539.928C179.373 539.656 178.941 539.448 178.349 539.304V543.264C178.925 543.136 179.349 542.896 179.621 542.544C179.909 542.176 180.053 541.712 180.053 541.152Z" fill="#FE5424"/>
<rect x="127.5" y="510.5" width="455" height="53" rx="7.5" stroke="#5A6ED5"/>
<g filter="url(#filter2_dd_424_16745)">
<rect x="308.5" y="457" width="51" height="20" rx="4" fill="#3C4257"/>
<path d="M316.575 471.119C316.007 471.119 315.499 471.013 315.05 470.8C314.601 470.584 314.244 470.288 313.98 469.913C313.719 469.538 313.58 469.109 313.562 468.626H315.097C315.125 468.984 315.28 469.277 315.561 469.504C315.842 469.729 316.18 469.841 316.575 469.841C316.885 469.841 317.161 469.77 317.402 469.628C317.643 469.486 317.834 469.288 317.973 469.036C318.112 468.783 318.18 468.494 318.178 468.17C318.18 467.841 318.111 467.548 317.969 467.293C317.827 467.037 317.632 466.837 317.385 466.692C317.138 466.544 316.854 466.47 316.533 466.47C316.271 466.467 316.014 466.516 315.761 466.615C315.509 466.714 315.308 466.845 315.161 467.007L313.733 466.773L314.189 462.273H319.251V463.594H315.497L315.246 465.908H315.297C315.459 465.717 315.688 465.56 315.983 465.435C316.278 465.307 316.602 465.243 316.955 465.243C317.483 465.243 317.955 465.368 318.369 465.618C318.784 465.865 319.111 466.206 319.349 466.641C319.588 467.075 319.707 467.572 319.707 468.132C319.707 468.709 319.574 469.223 319.307 469.675C319.043 470.124 318.675 470.477 318.203 470.736C317.734 470.991 317.192 471.119 316.575 471.119ZM324.361 471.166C323.659 471.166 323.057 470.989 322.554 470.634C322.054 470.276 321.669 469.76 321.399 469.087C321.132 468.411 320.999 467.597 320.999 466.645C321.001 465.693 321.136 464.884 321.403 464.216C321.673 463.545 322.058 463.034 322.558 462.682C323.061 462.33 323.662 462.153 324.361 462.153C325.06 462.153 325.661 462.33 326.163 462.682C326.666 463.034 327.051 463.545 327.318 464.216C327.588 464.886 327.723 465.696 327.723 466.645C327.723 467.599 327.588 468.415 327.318 469.091C327.051 469.764 326.666 470.278 326.163 470.634C325.663 470.989 325.063 471.166 324.361 471.166ZM324.361 469.832C324.906 469.832 325.337 469.564 325.652 469.027C325.97 468.487 326.129 467.693 326.129 466.645C326.129 465.952 326.057 465.369 325.912 464.898C325.767 464.426 325.563 464.071 325.298 463.832C325.034 463.591 324.722 463.47 324.361 463.47C323.818 463.47 323.389 463.74 323.074 464.28C322.759 464.817 322.599 465.605 322.597 466.645C322.594 467.341 322.663 467.926 322.805 468.401C322.95 468.875 323.155 469.233 323.419 469.474C323.683 469.713 323.997 469.832 324.361 469.832ZM330.627 469.807L330.572 470.276C330.532 470.634 330.461 470.997 330.359 471.366C330.259 471.739 330.154 472.081 330.043 472.393C329.933 472.706 329.843 472.952 329.775 473.131H328.735C328.775 472.957 328.829 472.722 328.897 472.423C328.968 472.125 329.036 471.79 329.102 471.418C329.167 471.045 329.211 470.668 329.234 470.284L329.263 469.807H330.627ZM335.224 471.166C334.522 471.166 333.92 470.989 333.417 470.634C332.917 470.276 332.532 469.76 332.262 469.087C331.995 468.411 331.862 467.597 331.862 466.645C331.865 465.693 332 464.884 332.267 464.216C332.537 463.545 332.922 463.034 333.422 462.682C333.924 462.33 334.525 462.153 335.224 462.153C335.923 462.153 336.524 462.33 337.027 462.682C337.529 463.034 337.914 463.545 338.181 464.216C338.451 464.886 338.586 465.696 338.586 466.645C338.586 467.599 338.451 468.415 338.181 469.091C337.914 469.764 337.529 470.278 337.027 470.634C336.527 470.989 335.926 471.166 335.224 471.166ZM335.224 469.832C335.77 469.832 336.2 469.564 336.515 469.027C336.833 468.487 336.993 467.693 336.993 466.645C336.993 465.952 336.92 465.369 336.775 464.898C336.63 464.426 336.426 464.071 336.162 463.832C335.897 463.591 335.585 463.47 335.224 463.47C334.681 463.47 334.252 463.74 333.937 464.28C333.622 464.817 333.463 465.605 333.46 466.645C333.457 467.341 333.527 467.926 333.669 468.401C333.814 468.875 334.018 469.233 334.282 469.474C334.547 469.713 334.86 469.832 335.224 469.832ZM343.228 471.166C342.526 471.166 341.924 470.989 341.421 470.634C340.921 470.276 340.536 469.76 340.266 469.087C339.999 468.411 339.866 467.597 339.866 466.645C339.869 465.693 340.004 464.884 340.271 464.216C340.54 463.545 340.925 463.034 341.425 462.682C341.928 462.33 342.529 462.153 343.228 462.153C343.927 462.153 344.528 462.33 345.031 462.682C345.533 463.034 345.918 463.545 346.185 464.216C346.455 464.886 346.59 465.696 346.59 466.645C346.59 467.599 346.455 468.415 346.185 469.091C345.918 469.764 345.533 470.278 345.031 470.634C344.531 470.989 343.93 471.166 343.228 471.166ZM343.228 469.832C343.773 469.832 344.204 469.564 344.519 469.027C344.837 468.487 344.996 467.693 344.996 466.645C344.996 465.952 344.924 465.369 344.779 464.898C344.634 464.426 344.43 464.071 344.165 463.832C343.901 463.591 343.589 463.47 343.228 463.47C342.685 463.47 342.256 463.74 341.941 464.28C341.626 464.817 341.467 465.605 341.464 466.645C341.461 467.341 341.531 467.926 341.673 468.401C341.817 468.875 342.022 469.233 342.286 469.474C342.55 469.713 342.864 469.832 343.228 469.832ZM351.232 471.166C350.53 471.166 349.928 470.989 349.425 470.634C348.925 470.276 348.54 469.76 348.27 469.087C348.003 468.411 347.87 467.597 347.87 466.645C347.873 465.693 348.007 464.884 348.275 464.216C348.544 463.545 348.929 463.034 349.429 462.682C349.932 462.33 350.533 462.153 351.232 462.153C351.931 462.153 352.532 462.33 353.034 462.682C353.537 463.034 353.922 463.545 354.189 464.216C354.459 464.886 354.594 465.696 354.594 466.645C354.594 467.599 354.459 468.415 354.189 469.091C353.922 469.764 353.537 470.278 353.034 470.634C352.534 470.989 351.934 471.166 351.232 471.166ZM351.232 469.832C351.777 469.832 352.208 469.564 352.523 469.027C352.841 468.487 353 467.693 353 466.645C353 465.952 352.928 465.369 352.783 464.898C352.638 464.426 352.434 464.071 352.169 463.832C351.905 463.591 351.593 463.47 351.232 463.47C350.689 463.47 350.26 463.74 349.945 464.28C349.63 464.817 349.471 465.605 349.468 466.645C349.465 467.341 349.534 467.926 349.676 468.401C349.821 468.875 350.026 469.233 350.29 469.474C350.554 469.713 350.868 469.832 351.232 469.832Z" fill="#E3E8EE"/>
</g>
<g filter="url(#filter3_dd_424_16745)">
<circle cx="334" cy="491" r="10" fill="white"/>
<circle cx="334" cy="491" r="9.5" stroke="#C1C9D2"/>
</g>
<defs>
<filter id="filter0_dd_424_16745" x="301" y="236" width="58" height="26" filterUnits="userSpaceOnUse" color-interpolation-filters="sRGB">
<feFlood flood-opacity="0" result="BackgroundImageFix"/>
<feColorMatrix in="SourceAlpha" type="matrix" values="0 0 0 0 0 0 0 0 0 0 0 0 0 0 0 0 0 0 127 0" result="hardAlpha"/>
<feOffset dy="1"/>
<feGaussianBlur stdDeviation="1.5"/>
<feColorMatrix type="matrix" values="0 0 0 0 0.215686 0 0 0 0 0.254902 0 0 0 0 0.317647 0 0 0 0.1 0"/>
<feBlend mode="normal" in2="BackgroundImageFix" result="effect1_dropShadow_424_16745"/>
<feColorMatrix in="SourceAlpha" type="matrix" values="0 0 0 0 0 0 0 0 0 0 0 0 0 0 0 0 0 0 127 0" result="hardAlpha"/>
<feOffset dy="1"/>
<feGaussianBlur stdDeviation="1"/>
<feColorMatrix type="matrix" values="0 0 0 0 0.215686 0 0 0 0 0.254902 0 0 0 0 0.317647 0 0 0 0.06 0"/>
<feBlend mode="normal" in2="effect1_dropShadow_424_16745" result="effect2_dropShadow_424_16745"/>
<feBlend mode="normal" in="SourceGraphic" in2="effect2_dropShadow_424_16745" result="shape"/>
</filter>
<filter id="filter1_dd_424_16745" x="315" y="259" width="30" height="30" filterUnits="userSpaceOnUse" color-interpolation-filters="sRGB">
<feFlood flood-opacity="0" result="BackgroundImageFix"/>
<feColorMatrix in="SourceAlpha" type="matrix" values="0 0 0 0 0 0 0 0 0 0 0 0 0 0 0 0 0 0 127 0" result="hardAlpha"/>
<feOffset dy="1"/>
<feGaussianBlur stdDeviation="0.5"/>
<feColorMatrix type="matrix" values="0 0 0 0 0 0 0 0 0 0 0 0 0 0 0 0 0 0 0.12 0"/>
<feBlend mode="normal" in2="BackgroundImageFix" result="effect1_dropShadow_424_16745"/>
<feColorMatrix in="SourceAlpha" type="matrix" values="0 0 0 0 0 0 0 0 0 0 0 0 0 0 0 0 0 0 127 0" result="hardAlpha"/>
<feOffset dy="2"/>
<feGaussianBlur stdDeviation="2.5"/>
<feColorMatrix type="matrix" values="0 0 0 0 0.235294 0 0 0 0 0.258824 0 0 0 0 0.341176 0 0 0 0.08 0"/>
<feBlend mode="normal" in2="effect1_dropShadow_424_16745" result="effect2_dropShadow_424_16745"/>
<feBlend mode="normal" in="SourceGraphic" in2="effect2_dropShadow_424_16745" result="shape"/>
</filter>
<filter id="filter2_dd_424_16745" x="305.5" y="455" width="57" height="26" filterUnits="userSpaceOnUse" color-interpolation-filters="sRGB">
<feFlood flood-opacity="0" result="BackgroundImageFix"/>
<feColorMatrix in="SourceAlpha" type="matrix" values="0 0 0 0 0 0 0 0 0 0 0 0 0 0 0 0 0 0 127 0" result="hardAlpha"/>
<feOffset dy="1"/>
<feGaussianBlur stdDeviation="1.5"/>
<feColorMatrix type="matrix" values="0 0 0 0 0.215686 0 0 0 0 0.254902 0 0 0 0 0.317647 0 0 0 0.1 0"/>
<feBlend mode="normal" in2="BackgroundImageFix" result="effect1_dropShadow_424_16745"/>
<feColorMatrix in="SourceAlpha" type="matrix" values="0 0 0 0 0 0 0 0 0 0 0 0 0 0 0 0 0 0 127 0" result="hardAlpha"/>
<feOffset dy="1"/>
<feGaussianBlur stdDeviation="1"/>
<feColorMatrix type="matrix" values="0 0 0 0 0.215686 0 0 0 0 0.254902 0 0 0 0 0.317647 0 0 0 0.06 0"/>
<feBlend mode="normal" in2="effect1_dropShadow_424_16745" result="effect2_dropShadow_424_16745"/>
<feBlend mode="normal" in="SourceGraphic" in2="effect2_dropShadow_424_16745" result="shape"/>
</filter>
<filter id="filter3_dd_424_16745" x="319" y="478" width="30" height="30" filterUnits="userSpaceOnUse" color-interpolation-filters="sRGB">
<feFlood flood-opacity="0" result="BackgroundImageFix"/>
<feColorMatrix in="SourceAlpha" type="matrix" values="0 0 0 0 0 0 0 0 0 0 0 0 0 0 0 0 0 0 127 0" result="hardAlpha"/>
<feOffset dy="1"/>
<feGaussianBlur stdDeviation="0.5"/>
<feColorMatrix type="matrix" values="0 0 0 0 0 0 0 0 0 0 0 0 0 0 0 0 0 0 0.12 0"/>
<feBlend mode="normal" in2="BackgroundImageFix" result="effect1_dropShadow_424_16745"/>
<feColorMatrix in="SourceAlpha" type="matrix" values="0 0 0 0 0 0 0 0 0 0 0 0 0 0 0 0 0 0 127 0" result="hardAlpha"/>
<feOffset dy="2"/>
<feGaussianBlur stdDeviation="2.5"/>
<feColorMatrix type="matrix" values="0 0 0 0 0.235294 0 0 0 0 0.258824 0 0 0 0 0.341176 0 0 0 0.08 0"/>
<feBlend mode="normal" in2="effect1_dropShadow_424_16745" result="effect2_dropShadow_424_16745"/>
<feBlend mode="normal" in="SourceGraphic" in2="effect2_dropShadow_424_16745" result="shape"/>
</filter>
<radialGradient id="paint0_radial_424_16745" cx="0" cy="0" r="1" gradientUnits="userSpaceOnUse" gradientTransform="translate(0.328128 341) scale(709 736.701)">
<stop offset="0.526625" stop-color="#FF3800"/>
<stop offset="1" stop-color="#182547"/>
</radialGradient>
<clipPath id="clip0_424_16745">
<rect width="709.328" height="682.656" rx="24" fill="white"/>
</clipPath>
<clipPath id="clip1_424_16745">
<rect width="709.328" height="682.656" rx="24" fill="white"/>
</clipPath>
</defs>
</svg>
