<svg width="126" height="36" viewBox="0 0 126 36" fill="none" xmlns="http://www.w3.org/2000/svg">
<path d="M11.9258 31.576C9.49382 31.576 7.44582 31.192 5.78182 30.424C4.11782 29.624 2.62982 28.504 1.31782 27.064L5.49382 22.84C6.38982 23.832 7.38182 24.616 8.46982 25.192C9.55782 25.768 10.7898 26.056 12.1658 26.056C13.5738 26.056 14.5498 25.848 15.0938 25.432C15.6378 24.984 15.9098 24.392 15.9098 23.656C15.9098 22.472 15.0618 21.768 13.3658 21.544L10.6298 21.208C4.96582 20.504 2.13382 17.912 2.13382 13.432C2.13382 12.216 2.35782 11.112 2.80582 10.12C3.28582 9.096 3.94182 8.232 4.77382 7.528C5.63782 6.792 6.66182 6.232 7.84582 5.848C9.06182 5.432 10.4218 5.224 11.9258 5.224C13.2378 5.224 14.3898 5.32 15.3818 5.512C16.4058 5.672 17.3018 5.928 18.0698 6.28C18.8698 6.6 19.5898 7.016 20.2298 7.528C20.9018 8.008 21.5578 8.552 22.1978 9.16L18.1178 13.336C17.3178 12.536 16.4058 11.912 15.3818 11.464C14.3898 10.984 13.3658 10.744 12.3098 10.744C11.0938 10.744 10.2298 10.936 9.71782 11.32C9.20582 11.704 8.94982 12.216 8.94982 12.856C8.94982 13.528 9.12582 14.056 9.47782 14.44C9.86182 14.792 10.5658 15.048 11.5898 15.208L14.4218 15.592C19.9578 16.328 22.7258 18.856 22.7258 23.176C22.7258 24.392 22.4698 25.512 21.9578 26.536C21.4458 27.56 20.7098 28.456 19.7498 29.224C18.8218 29.96 17.6858 30.536 16.3418 30.952C15.0298 31.368 13.5578 31.576 11.9258 31.576ZM42.4493 26.776H42.2093C41.9853 27.416 41.6813 28.024 41.2973 28.6C40.9453 29.176 40.4813 29.688 39.9053 30.136C39.3293 30.584 38.6413 30.936 37.8413 31.192C37.0733 31.448 36.1773 31.576 35.1533 31.576C32.5613 31.576 30.5933 30.728 29.2493 29.032C27.9373 27.304 27.2813 24.84 27.2813 21.64V5.8H34.3853V21.016C34.3853 22.552 34.6573 23.736 35.2013 24.568C35.7453 25.4 36.6733 25.816 37.9853 25.816C38.5293 25.816 39.0733 25.736 39.6173 25.576C40.1613 25.416 40.6413 25.192 41.0573 24.904C41.4733 24.584 41.8093 24.2 42.0653 23.752C42.3213 23.304 42.4493 22.776 42.4493 22.168V5.8H49.5533V31H42.4493V26.776ZM71.0431 26.776H70.8031C70.5791 27.416 70.2751 28.024 69.8911 28.6C69.5391 29.176 69.0751 29.688 68.4991 30.136C67.9231 30.584 67.2351 30.936 66.4351 31.192C65.6671 31.448 64.7711 31.576 63.7471 31.576C61.1551 31.576 59.1871 30.728 57.8431 29.032C56.5311 27.304 55.8751 24.84 55.8751 21.64V5.8H62.9791V21.016C62.9791 22.552 63.2511 23.736 63.7951 24.568C64.3391 25.4 65.2671 25.816 66.5791 25.816C67.1231 25.816 67.6671 25.736 68.2111 25.576C68.7551 25.416 69.2351 25.192 69.6511 24.904C70.0671 24.584 70.4031 24.2 70.6591 23.752C70.9151 23.304 71.0431 22.776 71.0431 22.168V5.8H78.1471V31H71.0431V26.776ZM84.7568 31V5.8H91.8608V10.072H92.1488C92.5968 8.76 93.3808 7.624 94.5008 6.664C95.6208 5.704 97.1728 5.224 99.1568 5.224C101.749 5.224 103.701 6.088 105.013 7.816C106.357 9.544 107.029 12.008 107.029 15.208V31H99.9248V15.784C99.9248 14.152 99.6688 12.952 99.1568 12.184C98.6448 11.384 97.7328 10.984 96.4208 10.984C95.8448 10.984 95.2848 11.064 94.7408 11.224C94.1968 11.352 93.7008 11.576 93.2528 11.896C92.8368 12.216 92.5008 12.616 92.2448 13.096C91.9888 13.544 91.8608 14.072 91.8608 14.68V31H84.7568Z" fill="#0C0C45"/>
<path d="M117.479 31.528C116.039 31.528 114.967 31.176 114.263 30.472C113.591 29.736 113.255 28.808 113.255 27.688V26.728C113.255 25.608 113.591 24.696 114.263 23.992C114.967 23.256 116.039 22.888 117.479 22.888C118.919 22.888 119.975 23.256 120.647 23.992C121.351 24.696 121.703 25.608 121.703 26.728V27.688C121.703 28.808 121.351 29.736 120.647 30.472C119.975 31.176 118.919 31.528 117.479 31.528Z" fill="#FE5424"/>
</svg>
